<svg id="svg" version="1.1" xmlns="http://www.w3.org/2000/svg" xmlns:xlink="http://www.w3.org/1999/xlink" width="400" height="88.8" viewBox="0, 0, 400,88.8"><g id="svgg"><path id="path0" d="M58.249 0.250 C 58.128 0.434,57.617 0.528,56.333 0.604 C 55.371 0.661,54.171 0.841,53.667 1.003 C 53.163 1.166,52.337 1.353,51.833 1.418 C 51.329 1.483,50.617 1.669,50.250 1.830 C 49.883 1.991,49.146 2.172,48.611 2.231 C 48.076 2.291,47.427 2.449,47.169 2.582 C 46.912 2.715,46.338 2.906,45.895 3.005 C 45.451 3.104,44.975 3.286,44.836 3.409 C 44.697 3.532,44.158 3.719,43.638 3.825 C 43.118 3.931,42.607 4.121,42.503 4.246 C 42.399 4.371,42.000 4.527,41.615 4.591 C 41.004 4.694,39.760 5.213,39.000 5.681 C 38.862 5.766,38.563 5.916,38.333 6.015 C 37.967 6.172,37.371 6.445,35.833 7.159 C 35.604 7.265,35.042 7.570,34.583 7.836 C 34.125 8.101,33.519 8.430,33.237 8.566 C 32.954 8.703,32.627 8.931,32.508 9.074 C 32.389 9.217,32.157 9.333,31.992 9.333 C 31.827 9.333,31.469 9.521,31.197 9.750 C 30.925 9.979,30.587 10.167,30.447 10.167 C 30.307 10.167,29.969 10.354,29.697 10.583 C 29.425 10.813,29.120 11.000,29.019 11.000 C 28.918 11.000,28.742 11.150,28.628 11.333 C 28.513 11.517,28.328 11.667,28.216 11.667 C 28.103 11.667,27.755 11.892,27.442 12.167 C 27.129 12.442,26.791 12.667,26.692 12.667 C 26.593 12.667,26.431 12.817,26.333 13.000 C 26.235 13.183,26.058 13.333,25.940 13.333 C 25.822 13.333,25.549 13.521,25.333 13.750 C 25.118 13.979,24.870 14.167,24.781 14.167 C 24.561 14.167,22.739 15.780,20.969 17.542 C 20.163 18.344,19.425 19.000,19.330 19.000 C 19.234 19.000,19.113 19.111,19.061 19.247 C 19.009 19.383,18.468 20.016,17.858 20.653 C 16.654 21.912,15.114 23.628,14.583 24.300 C 14.400 24.533,14.044 24.964,13.792 25.258 C 13.540 25.553,13.333 25.878,13.333 25.980 C 13.333 26.083,13.259 26.167,13.169 26.167 C 13.012 26.167,12.376 27.030,11.833 27.977 C 11.696 28.217,11.452 28.512,11.292 28.633 C 11.131 28.754,11.000 28.958,11.000 29.087 C 11.000 29.216,10.856 29.399,10.680 29.493 C 10.504 29.587,10.313 29.882,10.254 30.148 C 10.196 30.414,10.002 30.764,9.824 30.925 C 9.646 31.086,9.500 31.313,9.500 31.430 C 9.500 31.546,9.313 31.864,9.083 32.136 C 8.854 32.409,8.667 32.709,8.667 32.803 C 8.667 32.897,8.489 33.186,8.273 33.446 C 8.056 33.705,7.821 34.104,7.750 34.333 C 7.679 34.563,7.481 34.929,7.310 35.147 C 7.140 35.366,7.000 35.675,7.000 35.833 C 7.000 35.992,6.855 36.306,6.677 36.532 C 6.499 36.758,6.302 37.162,6.238 37.430 C 6.175 37.698,5.991 38.067,5.829 38.250 C 5.668 38.433,5.486 38.822,5.424 39.113 C 5.362 39.405,5.205 39.733,5.074 39.841 C 4.943 39.950,4.757 40.349,4.661 40.728 C 4.566 41.107,4.350 41.679,4.182 42.000 C 4.014 42.321,3.833 42.874,3.779 43.229 C 3.725 43.584,3.562 44.006,3.417 44.166 C 3.272 44.327,3.091 44.850,3.015 45.330 C 2.939 45.810,2.791 46.256,2.686 46.322 C 2.451 46.466,2.167 47.413,2.167 48.047 C 2.167 48.304,2.026 48.792,1.853 49.132 C 1.681 49.472,1.486 50.237,1.421 50.833 C 1.355 51.429,1.189 52.094,1.052 52.310 C 0.910 52.534,0.728 53.468,0.631 54.477 C 0.522 55.604,0.376 56.317,0.230 56.435 C -0.089 56.692,-0.087 58.333,0.231 58.333 C 0.502 58.333,0.599 57.882,0.840 55.525 C 0.937 54.577,1.121 53.527,1.251 53.192 C 1.380 52.857,1.567 52.117,1.666 51.547 C 1.765 50.976,1.952 50.258,2.080 49.950 C 2.209 49.641,2.366 48.983,2.430 48.486 C 2.494 47.990,2.676 47.321,2.836 47.000 C 2.995 46.679,3.182 46.154,3.250 45.833 C 3.318 45.512,3.515 44.972,3.687 44.632 C 3.859 44.292,4.001 43.879,4.002 43.715 C 4.002 43.551,4.188 43.042,4.413 42.583 C 4.638 42.125,4.825 41.637,4.827 41.500 C 4.830 41.362,5.179 40.537,5.603 39.667 C 6.438 37.952,7.005 36.750,7.411 35.833 C 7.553 35.512,7.852 34.950,8.076 34.583 C 8.301 34.217,8.578 33.729,8.694 33.500 C 8.809 33.271,9.075 32.871,9.285 32.612 C 9.495 32.353,9.667 32.057,9.667 31.955 C 9.667 31.852,9.854 31.483,10.083 31.134 C 10.312 30.785,10.705 30.181,10.956 29.792 C 11.206 29.402,11.712 28.694,12.081 28.219 C 12.449 27.743,12.938 27.079,13.167 26.743 C 13.610 26.093,15.278 24.029,15.585 23.750 C 15.686 23.658,16.250 23.021,16.838 22.333 C 18.806 20.031,23.133 15.861,25.017 14.452 C 29.269 11.270,28.811 11.582,31.412 10.083 C 34.062 8.555,34.409 8.366,35.667 7.754 C 36.354 7.420,37.029 7.088,37.167 7.016 C 37.964 6.600,38.625 6.285,41.011 5.184 C 41.429 4.991,41.917 4.831,42.094 4.828 C 42.272 4.825,42.792 4.638,43.250 4.413 C 43.708 4.188,44.213 4.002,44.371 4.002 C 44.529 4.001,44.979 3.855,45.371 3.678 C 46.279 3.268,48.691 2.555,49.667 2.408 C 50.079 2.347,50.675 2.190,50.990 2.060 C 51.306 1.930,52.263 1.711,53.117 1.574 C 53.971 1.436,54.846 1.257,55.060 1.175 C 55.275 1.094,56.306 0.942,57.350 0.837 C 59.702 0.602,60.373 0.466,60.460 0.204 C 60.567 -0.117,58.463 -0.073,58.249 0.250 M88.082 44.333 C 88.082 68.762,88.101 78.756,88.125 66.542 C 88.149 54.327,88.149 34.340,88.125 22.125 C 88.101 9.910,88.082 19.904,88.082 44.333 M88.667 44.333 C 88.667 73.778,88.723 88.667,88.833 88.667 C 88.944 88.667,89.000 73.778,89.000 44.333 C 89.000 14.889,88.944 0.000,88.833 0.000 C 88.723 0.000,88.667 14.889,88.667 44.333 M265.462 14.458 C 265.412 27.327,265.376 29.027,265.129 29.917 C 264.976 30.467,264.770 31.756,264.672 32.781 C 264.573 33.806,264.391 34.933,264.267 35.284 C 264.143 35.636,263.986 36.334,263.917 36.837 C 263.849 37.339,263.662 38.087,263.503 38.500 C 263.344 38.912,263.161 39.662,263.097 40.167 C 263.032 40.671,262.875 41.245,262.746 41.443 C 262.618 41.641,262.425 42.150,262.318 42.575 C 262.211 43.000,261.983 43.623,261.812 43.959 C 261.640 44.295,261.498 44.723,261.495 44.910 C 261.492 45.097,261.305 45.625,261.080 46.083 C 260.854 46.542,260.669 47.076,260.668 47.271 C 260.667 47.466,260.558 47.716,260.425 47.826 C 260.292 47.936,260.094 48.302,259.984 48.638 C 259.875 48.975,259.646 49.429,259.476 49.647 C 259.306 49.866,259.167 50.149,259.167 50.276 C 259.167 50.402,258.953 50.906,258.693 51.394 C 258.432 51.883,258.167 52.425,258.104 52.600 C 258.041 52.774,257.770 53.292,257.502 53.750 C 257.234 54.208,256.891 54.846,256.739 55.167 C 256.587 55.487,256.406 55.788,256.337 55.833 C 256.268 55.879,256.051 56.217,255.854 56.583 C 255.401 57.427,255.207 57.750,254.631 58.611 C 254.376 58.992,254.167 59.386,254.167 59.486 C 254.167 59.585,254.099 59.667,254.016 59.667 C 253.934 59.667,253.710 59.910,253.519 60.208 C 253.328 60.506,252.909 61.087,252.587 61.500 C 252.265 61.913,251.928 62.419,251.838 62.625 C 251.748 62.831,251.605 63.000,251.521 63.000 C 251.436 63.000,251.222 63.244,251.045 63.542 C 250.329 64.748,246.125 69.141,243.573 71.350 C 242.662 72.139,241.681 73.005,241.393 73.275 C 241.105 73.546,240.543 74.010,240.143 74.308 C 239.744 74.606,238.779 75.335,238.000 75.929 C 236.349 77.187,235.183 77.963,233.500 78.926 C 233.088 79.162,232.450 79.535,232.083 79.755 C 231.717 79.975,230.779 80.464,230.000 80.840 C 229.221 81.217,228.311 81.669,227.977 81.846 C 227.644 82.022,227.260 82.167,227.125 82.167 C 226.989 82.167,226.694 82.312,226.468 82.490 C 226.242 82.667,225.838 82.867,225.570 82.934 C 225.302 83.001,224.753 83.231,224.350 83.444 C 223.947 83.658,223.458 83.833,223.264 83.833 C 223.070 83.833,222.650 83.973,222.331 84.144 C 222.011 84.316,221.487 84.512,221.167 84.581 C 220.846 84.651,220.321 84.838,220.000 84.998 C 219.679 85.159,219.057 85.342,218.618 85.406 C 218.179 85.470,217.504 85.666,217.118 85.841 C 216.732 86.016,216.192 86.163,215.917 86.168 C 215.642 86.173,215.004 86.324,214.500 86.504 C 213.996 86.683,213.021 86.911,212.333 87.010 C 211.646 87.108,210.708 87.293,210.250 87.419 C 209.792 87.546,208.592 87.732,207.583 87.832 C 204.606 88.127,203.948 88.238,203.875 88.458 C 203.767 88.784,206.652 88.748,206.898 88.421 C 207.027 88.251,207.670 88.122,209.000 88.001 C 210.054 87.904,211.254 87.717,211.667 87.585 C 212.079 87.452,212.939 87.263,213.577 87.163 C 214.215 87.064,214.825 86.909,214.933 86.820 C 215.040 86.731,215.703 86.548,216.406 86.413 C 217.109 86.279,217.825 86.094,217.996 86.002 C 218.167 85.910,218.707 85.750,219.196 85.645 C 219.684 85.541,220.345 85.315,220.664 85.144 C 220.984 84.973,221.396 84.833,221.581 84.832 C 221.766 84.831,222.292 84.646,222.750 84.420 C 223.208 84.195,223.779 84.008,224.019 84.005 C 224.259 84.002,224.640 83.855,224.866 83.677 C 225.092 83.499,225.495 83.301,225.763 83.237 C 226.031 83.172,226.557 82.943,226.931 82.726 C 227.306 82.510,227.727 82.333,227.867 82.333 C 228.007 82.333,228.301 82.193,228.519 82.022 C 228.738 81.850,229.160 81.657,229.456 81.592 C 229.753 81.527,230.041 81.401,230.097 81.312 C 230.152 81.222,230.584 80.965,231.057 80.741 C 231.530 80.516,232.217 80.148,232.583 79.922 C 232.950 79.696,233.489 79.398,233.780 79.258 C 234.072 79.119,234.358 78.928,234.417 78.833 C 234.475 78.739,234.778 78.555,235.091 78.424 C 235.403 78.294,235.755 78.110,235.871 78.016 C 235.988 77.922,236.356 77.617,236.689 77.339 C 237.022 77.061,237.377 76.833,237.479 76.833 C 237.581 76.833,237.758 76.683,237.872 76.500 C 237.987 76.317,238.164 76.167,238.266 76.167 C 238.368 76.167,238.634 75.998,238.857 75.792 C 239.080 75.585,239.447 75.293,239.673 75.142 C 242.135 73.497,248.849 67.061,250.876 64.404 C 251.220 63.953,251.619 63.433,251.764 63.250 C 251.908 63.067,252.426 62.354,252.915 61.667 C 253.405 60.979,253.961 60.259,254.152 60.066 C 254.344 59.873,254.500 59.638,254.500 59.545 C 254.500 59.451,254.623 59.272,254.773 59.148 C 254.923 59.023,255.186 58.620,255.358 58.252 C 255.530 57.884,255.892 57.246,256.162 56.833 C 256.433 56.421,256.774 55.858,256.921 55.583 C 257.562 54.385,257.947 53.716,258.214 53.335 C 258.371 53.110,258.500 52.803,258.500 52.652 C 258.500 52.501,258.656 52.179,258.847 51.937 C 259.039 51.694,259.272 51.216,259.366 50.875 C 259.460 50.534,259.679 50.075,259.852 49.855 C 260.025 49.635,260.167 49.325,260.167 49.167 C 260.167 49.008,260.304 48.699,260.472 48.481 C 260.764 48.101,260.969 47.597,261.583 45.750 C 261.736 45.292,261.997 44.617,262.164 44.250 C 262.331 43.883,262.522 43.322,262.589 43.002 C 262.656 42.683,262.816 42.261,262.945 42.064 C 263.073 41.868,263.254 41.238,263.347 40.664 C 263.439 40.091,263.615 39.426,263.739 39.186 C 263.862 38.946,264.049 38.192,264.155 37.509 C 264.260 36.827,264.428 36.170,264.528 36.050 C 264.628 35.930,264.811 34.854,264.936 33.658 C 265.061 32.463,265.247 31.329,265.349 31.138 C 265.788 30.318,266.106 0.000,265.676 0.000 C 265.579 0.000,265.497 5.536,265.462 14.458 M304.582 0.254 C 304.471 0.426,303.929 0.564,302.917 0.680 C 301.414 0.852,301.018 0.926,299.000 1.415 C 298.404 1.559,297.579 1.753,297.167 1.847 C 296.754 1.940,295.892 2.270,295.250 2.579 C 294.608 2.887,293.896 3.189,293.667 3.248 C 293.311 3.340,288.782 5.468,288.228 5.802 C 288.066 5.900,286.902 6.670,285.750 7.441 C 283.985 8.622,283.277 9.159,281.250 10.851 C 279.297 12.482,278.358 13.396,276.582 15.394 C 276.489 15.498,275.948 16.183,275.378 16.917 C 274.809 17.650,274.226 18.400,274.083 18.583 C 273.317 19.563,271.662 22.310,270.919 23.833 C 270.584 24.521,270.240 25.196,270.154 25.333 C 270.068 25.471,269.917 25.771,269.818 26.000 C 269.719 26.229,269.498 26.717,269.327 27.083 C 268.954 27.884,268.419 29.384,268.020 30.750 C 267.859 31.300,267.646 31.900,267.547 32.083 C 267.448 32.267,267.316 32.792,267.255 33.250 C 267.194 33.708,267.004 34.496,266.833 35.000 C 266.662 35.504,266.441 36.704,266.342 37.667 C 266.243 38.629,266.091 39.942,266.003 40.583 C 265.796 42.103,265.799 46.594,266.008 48.083 C 266.098 48.725,266.276 50.112,266.404 51.167 C 266.531 52.221,266.744 53.383,266.877 53.750 C 267.010 54.117,267.174 54.786,267.241 55.238 C 267.390 56.245,268.711 60.263,269.327 61.583 C 269.498 61.950,269.719 62.438,269.818 62.667 C 269.917 62.896,270.069 63.196,270.155 63.333 C 270.242 63.471,270.584 64.146,270.914 64.833 C 271.245 65.521,271.735 66.421,272.005 66.833 C 272.274 67.246,272.588 67.771,272.702 68.000 C 272.817 68.229,273.268 68.883,273.705 69.454 C 274.142 70.024,274.500 70.543,274.500 70.606 C 274.500 70.670,274.614 70.841,274.753 70.986 C 274.893 71.131,275.323 71.662,275.709 72.167 C 278.116 75.307,282.633 79.336,286.078 81.417 C 286.382 81.600,286.957 81.955,287.357 82.204 C 287.756 82.454,288.399 82.813,288.785 83.001 C 289.171 83.189,289.528 83.410,289.579 83.493 C 289.630 83.575,289.952 83.734,290.294 83.845 C 290.636 83.957,291.096 84.188,291.314 84.358 C 291.533 84.528,291.841 84.667,292.000 84.667 C 292.159 84.667,292.471 84.810,292.695 84.986 C 292.918 85.162,293.397 85.358,293.759 85.422 C 294.121 85.485,294.576 85.637,294.770 85.759 C 294.965 85.880,295.575 86.097,296.125 86.239 C 296.675 86.382,297.341 86.611,297.605 86.748 C 297.868 86.886,298.258 86.998,298.472 86.999 C 298.686 87.000,299.398 87.180,300.055 87.400 C 300.712 87.620,301.758 87.848,302.380 87.905 C 304.015 88.057,304.500 88.179,304.500 88.438 C 304.500 88.627,305.457 88.667,310.083 88.667 C 314.935 88.667,315.667 88.634,315.667 88.417 C 315.667 88.279,315.685 88.166,315.708 88.165 C 316.589 88.137,319.796 87.608,320.128 87.437 C 320.382 87.305,321.018 87.119,321.541 87.022 C 322.064 86.925,322.700 86.740,322.954 86.610 C 323.209 86.480,323.679 86.318,324.000 86.251 C 324.321 86.184,324.898 85.987,325.283 85.814 C 325.667 85.642,326.106 85.500,326.258 85.500 C 326.531 85.500,331.622 83.009,332.917 82.242 C 333.283 82.024,333.808 81.721,334.083 81.566 C 334.548 81.306,335.242 80.796,335.833 80.280 C 335.971 80.160,336.810 79.521,337.698 78.860 C 340.119 77.059,343.672 73.439,345.167 71.251 C 345.396 70.916,345.733 70.461,345.917 70.241 C 346.364 69.704,346.906 68.924,347.529 67.917 C 347.812 67.458,348.179 66.887,348.344 66.647 C 348.509 66.408,348.760 65.958,348.902 65.647 C 349.044 65.337,349.226 64.971,349.308 64.833 C 349.455 64.584,350.276 62.843,350.841 61.583 C 351.005 61.217,351.340 60.354,351.585 59.667 C 351.830 58.979,352.167 58.042,352.335 57.583 C 352.502 57.125,352.722 56.250,352.822 55.640 C 352.922 55.029,353.109 54.279,353.236 53.973 C 353.363 53.667,353.516 52.967,353.576 52.417 C 353.763 50.684,353.863 50.141,353.975 50.253 C 354.035 50.312,354.121 58.999,354.167 69.556 C 354.214 80.567,354.250 69.815,354.250 44.333 C 354.250 18.963,354.214 8.112,354.167 19.028 C 354.121 29.539,354.027 38.195,353.958 38.264 C 353.890 38.333,353.832 38.320,353.830 38.236 C 353.815 37.547,353.315 34.443,353.177 34.185 C 353.081 34.006,352.919 33.459,352.819 32.971 C 352.573 31.782,351.133 27.529,350.712 26.750 C 350.488 26.337,349.557 24.340,349.429 24.000 C 349.377 23.863,349.114 23.375,348.844 22.917 C 348.574 22.458,348.188 21.786,347.988 21.422 C 347.608 20.733,347.184 20.099,346.535 19.250 C 345.907 18.428,345.697 18.150,344.548 16.615 C 342.674 14.110,338.911 10.512,336.235 8.667 C 336.035 8.529,335.332 8.042,334.672 7.583 C 334.013 7.125,333.249 6.626,332.975 6.474 C 332.701 6.322,332.351 6.097,332.197 5.974 C 332.043 5.851,331.504 5.550,331.000 5.307 C 330.496 5.063,329.296 4.481,328.333 4.015 C 327.371 3.548,326.481 3.166,326.356 3.166 C 326.231 3.167,325.856 3.018,325.523 2.836 C 324.358 2.201,323.292 1.830,322.109 1.648 C 321.453 1.548,320.654 1.355,320.333 1.221 C 320.012 1.086,319.075 0.906,318.250 0.820 C 316.117 0.597,315.667 0.495,315.667 0.231 C 315.667 -0.133,304.820 -0.110,304.582 0.254 " stroke="none" fill="#a4e3d4" fill-rule="evenodd"></path><path id="path1" d="M64.082 0.254 C 63.860 0.594,62.462 0.804,59.238 0.980 C 57.326 1.085,56.410 1.205,56.036 1.398 C 55.726 1.558,54.876 1.712,53.964 1.773 C 52.885 1.845,52.257 1.972,51.889 2.193 C 51.581 2.378,50.886 2.552,50.222 2.610 C 49.596 2.664,48.858 2.840,48.583 3.001 C 48.308 3.161,47.682 3.342,47.191 3.404 C 46.700 3.466,46.100 3.656,45.857 3.826 C 45.615 3.997,45.060 4.186,44.625 4.245 C 44.190 4.305,43.833 4.412,43.833 4.483 C 43.833 4.674,43.046 5.000,42.584 5.000 C 42.364 5.000,41.832 5.187,41.401 5.417 C 40.970 5.646,40.519 5.833,40.399 5.833 C 40.279 5.833,39.905 6.021,39.567 6.250 C 39.230 6.479,38.824 6.667,38.666 6.667 C 38.508 6.667,38.187 6.817,37.953 7.001 C 37.719 7.186,37.284 7.385,36.987 7.444 C 36.691 7.504,36.317 7.683,36.158 7.842 C 35.998 8.002,35.616 8.188,35.309 8.255 C 35.001 8.323,34.652 8.518,34.532 8.689 C 34.412 8.860,34.221 9.000,34.106 9.000 C 33.992 9.000,33.644 9.187,33.333 9.417 C 33.023 9.646,32.663 9.833,32.533 9.833 C 32.404 9.833,32.075 10.021,31.803 10.250 C 31.531 10.479,31.180 10.667,31.024 10.667 C 30.868 10.667,30.614 10.815,30.459 10.995 C 30.304 11.176,29.969 11.376,29.714 11.439 C 29.459 11.502,29.152 11.692,29.032 11.860 C 28.912 12.029,28.715 12.167,28.593 12.167 C 28.471 12.167,28.249 12.354,28.099 12.583 C 27.949 12.813,27.734 13.001,27.621 13.003 C 27.509 13.004,27.240 13.192,27.024 13.420 C 26.808 13.647,26.557 13.833,26.465 13.833 C 26.312 13.833,26.106 13.983,24.798 15.049 C 24.259 15.488,23.104 16.530,21.839 17.717 C 21.332 18.193,20.632 18.823,20.284 19.118 C 19.937 19.412,19.383 19.974,19.055 20.368 C 18.119 21.487,16.328 23.482,15.458 24.372 C 15.023 24.818,14.667 25.240,14.667 25.311 C 14.667 25.382,14.479 25.603,14.250 25.802 C 14.021 26.001,13.833 26.264,13.833 26.387 C 13.833 26.509,13.646 26.785,13.417 27.000 C 13.188 27.215,13.000 27.469,13.000 27.565 C 13.000 27.660,12.855 27.891,12.678 28.077 C 11.726 29.083,11.500 29.369,11.500 29.573 C 11.500 29.697,11.314 29.975,11.086 30.191 C 10.859 30.407,10.671 30.709,10.670 30.862 C 10.668 31.016,10.495 31.353,10.285 31.612 C 10.075 31.871,9.814 32.290,9.705 32.542 C 9.596 32.794,9.439 33.000,9.355 33.000 C 9.271 33.000,9.152 33.201,9.091 33.447 C 9.029 33.693,8.796 34.111,8.573 34.377 C 8.349 34.642,8.167 34.992,8.167 35.154 C 8.167 35.316,8.024 35.577,7.850 35.735 C 7.676 35.893,7.486 36.272,7.429 36.577 C 7.371 36.883,7.186 37.309,7.017 37.525 C 6.848 37.740,6.659 38.153,6.596 38.441 C 6.533 38.729,6.335 39.097,6.157 39.259 C 5.979 39.420,5.833 39.717,5.833 39.920 C 5.833 40.123,5.683 40.480,5.498 40.714 C 5.314 40.949,5.088 41.540,4.996 42.029 C 4.905 42.517,4.725 42.995,4.597 43.090 C 4.469 43.186,4.311 43.618,4.246 44.051 C 4.181 44.483,3.998 45.005,3.839 45.210 C 3.680 45.415,3.498 45.917,3.434 46.326 C 3.371 46.734,3.181 47.296,3.014 47.576 C 2.842 47.862,2.666 48.580,2.610 49.222 C 2.552 49.886,2.378 50.581,2.193 50.889 C 2.010 51.194,1.835 51.889,1.778 52.537 C 1.724 53.153,1.556 53.898,1.403 54.192 C 1.220 54.547,1.084 55.404,1.001 56.739 C 0.869 58.845,0.564 60.167,0.209 60.167 C 0.043 60.167,0.000 63.088,0.000 74.417 L 0.000 88.667 43.833 88.667 L 87.667 88.667 87.667 44.333 L 87.667 0.000 75.957 0.000 C 65.657 0.000,64.228 0.031,64.082 0.254 M354.639 22.167 C 354.601 34.358,354.601 54.308,354.639 66.500 L 354.708 88.667 376.917 88.667 L 399.125 88.667 399.229 88.146 C 399.365 87.468,399.362 1.445,399.226 0.625 L 399.123 0.000 376.916 0.000 L 354.708 0.000 354.639 22.167 " stroke="none" fill="#299088" fill-rule="evenodd"></path><path id="path2" d="M62.667 0.250 C 62.667 0.388,62.535 0.505,62.375 0.511 C 61.536 0.542,58.503 0.963,59.000 0.978 C 59.971 1.010,63.281 0.678,63.738 0.504 C 64.404 0.251,64.244 0.000,63.417 0.000 C 62.861 0.000,62.667 0.065,62.667 0.250 M87.749 44.333 C 87.749 68.762,87.768 78.756,87.792 66.542 C 87.815 54.327,87.815 34.340,87.792 22.125 C 87.768 9.910,87.749 19.904,87.749 44.333 M89.167 44.333 L 89.167 88.667 144.833 88.667 C 191.239 88.667,200.500 88.630,200.500 88.443 C 200.500 87.968,201.450 87.799,205.083 87.631 C 207.989 87.496,208.811 87.407,209.046 87.201 C 209.255 87.017,209.909 86.903,211.272 86.811 C 212.774 86.711,213.247 86.620,213.405 86.405 C 213.546 86.212,213.996 86.090,214.891 86.002 C 215.762 85.917,216.284 85.779,216.511 85.574 C 216.734 85.372,217.192 85.247,217.881 85.200 C 218.587 85.152,219.026 85.030,219.259 84.816 C 219.448 84.644,219.973 84.455,220.426 84.396 C 220.879 84.337,221.400 84.154,221.583 83.989 C 221.767 83.824,222.322 83.635,222.816 83.569 C 223.337 83.501,223.846 83.321,224.025 83.142 C 224.194 82.972,224.506 82.833,224.718 82.833 C 224.929 82.833,225.356 82.646,225.667 82.417 C 225.977 82.187,226.390 82.000,226.583 82.000 C 226.777 82.000,227.189 81.813,227.500 81.583 C 227.813 81.352,228.292 81.167,228.576 81.167 C 228.902 81.167,229.160 81.049,229.289 80.842 C 229.401 80.663,229.775 80.464,230.121 80.400 C 230.467 80.335,230.848 80.144,230.968 79.975 C 231.088 79.805,231.288 79.667,231.413 79.667 C 231.539 79.667,231.864 79.479,232.136 79.250 C 232.409 79.021,232.741 78.833,232.875 78.833 C 233.009 78.833,233.320 78.646,233.568 78.417 C 233.815 78.188,234.196 78.000,234.414 78.000 C 234.661 78.000,234.850 77.877,234.914 77.675 C 234.971 77.497,235.182 77.299,235.384 77.236 C 235.585 77.173,235.962 76.944,236.221 76.727 C 236.480 76.511,236.781 76.333,236.889 76.333 C 236.998 76.333,237.180 76.183,237.295 76.000 C 237.409 75.817,237.606 75.667,237.732 75.667 C 237.858 75.667,238.085 75.479,238.235 75.250 C 238.385 75.021,238.616 74.833,238.748 74.833 C 238.880 74.833,239.068 74.684,239.166 74.502 C 239.263 74.320,239.520 74.126,239.736 74.072 C 239.953 74.018,240.288 73.792,240.481 73.570 C 240.673 73.348,240.944 73.167,241.082 73.167 C 241.220 73.167,241.333 73.053,241.333 72.913 C 241.333 72.774,241.521 72.574,241.750 72.470 C 241.979 72.365,242.167 72.177,242.167 72.051 C 242.167 71.925,242.298 71.769,242.458 71.703 C 243.070 71.452,250.167 64.368,250.167 64.008 C 250.167 63.919,250.317 63.765,250.500 63.667 C 250.683 63.569,250.833 63.390,250.833 63.270 C 250.833 63.150,250.994 62.909,251.190 62.734 C 251.386 62.560,251.649 62.173,251.775 61.875 C 251.901 61.577,252.116 61.333,252.252 61.333 C 252.389 61.333,252.500 61.197,252.500 61.030 C 252.500 60.863,252.669 60.574,252.875 60.388 C 253.081 60.201,253.400 59.798,253.583 59.491 C 253.767 59.184,254.007 58.780,254.118 58.594 C 254.229 58.408,254.425 58.178,254.555 58.084 C 254.684 57.989,254.844 57.666,254.910 57.365 C 254.976 57.064,255.173 56.728,255.348 56.619 C 255.523 56.509,255.667 56.314,255.667 56.184 C 255.667 56.054,255.854 55.702,256.083 55.402 C 256.313 55.101,256.500 54.740,256.500 54.598 C 256.500 54.457,256.688 54.218,256.917 54.068 C 257.201 53.882,257.333 53.643,257.333 53.316 C 257.333 53.017,257.459 52.758,257.667 52.628 C 257.850 52.513,258.000 52.344,258.001 52.252 C 258.004 51.767,258.378 50.833,258.569 50.833 C 258.702 50.833,258.827 50.553,258.884 50.125 C 258.945 49.669,259.101 49.335,259.323 49.188 C 259.534 49.048,259.667 48.779,259.667 48.492 C 259.667 48.236,259.854 47.803,260.083 47.530 C 260.359 47.203,260.500 46.832,260.500 46.434 C 260.500 46.046,260.624 45.709,260.850 45.483 C 261.073 45.260,261.245 44.799,261.326 44.207 C 261.400 43.659,261.563 43.199,261.726 43.081 C 261.883 42.965,262.043 42.533,262.100 42.065 C 262.155 41.617,262.332 41.061,262.494 40.830 C 262.674 40.572,262.834 39.909,262.908 39.114 C 262.993 38.213,263.120 37.732,263.325 37.534 C 263.548 37.319,263.646 36.864,263.727 35.667 C 263.808 34.465,263.915 33.974,264.167 33.632 C 264.449 33.250,264.500 32.915,264.502 31.465 C 264.504 30.299,264.621 29.243,264.870 28.167 C 265.227 26.619,265.237 26.280,265.290 13.292 L 265.345 0.000 177.256 0.000 L 89.167 0.000 89.167 44.333 M354.580 18.500 C 354.580 28.721,354.600 32.902,354.625 27.792 C 354.649 22.681,354.649 14.319,354.625 9.208 C 354.600 4.098,354.580 8.279,354.580 18.500 M399.250 44.333 C 399.250 68.717,399.296 88.667,399.352 88.667 C 399.630 88.667,399.664 83.849,399.664 44.333 C 399.664 4.818,399.630 0.000,399.352 -0.000 C 399.296 -0.000,399.250 19.950,399.250 44.333 M55.475 1.337 C 55.324 1.426,54.686 1.570,54.058 1.658 L 52.917 1.818 54.237 1.733 C 55.429 1.656,57.005 1.183,56.083 1.178 C 55.900 1.178,55.626 1.249,55.475 1.337 M51.417 2.167 C 50.971 2.382,50.860 2.490,51.083 2.493 C 51.267 2.496,51.642 2.349,51.917 2.167 C 52.550 1.747,52.286 1.747,51.417 2.167 M49.794 2.618 C 50.001 2.658,50.301 2.656,50.460 2.615 C 50.620 2.573,50.450 2.540,50.083 2.542 C 49.717 2.544,49.586 2.578,49.794 2.618 M48.624 2.765 C 48.569 2.820,48.238 2.966,47.887 3.091 C 47.364 3.278,47.324 3.320,47.667 3.325 C 47.896 3.328,48.308 3.182,48.583 3.000 C 48.858 2.818,49.002 2.668,48.903 2.668 C 48.803 2.667,48.678 2.711,48.624 2.765 M45.675 3.740 C 45.565 3.872,45.312 4.012,45.113 4.051 L 44.750 4.121 45.107 4.144 C 45.303 4.156,45.640 4.019,45.857 3.839 C 46.073 3.659,46.165 3.509,46.062 3.506 C 45.959 3.502,45.785 3.608,45.675 3.740 M43.333 4.583 C 43.219 4.721,42.966 4.839,42.771 4.846 C 42.576 4.854,42.514 4.899,42.633 4.947 C 42.895 5.051,43.833 4.686,43.833 4.480 C 43.833 4.251,43.562 4.307,43.333 4.583 M41.250 5.333 C 40.975 5.515,40.825 5.664,40.917 5.664 C 41.008 5.664,41.308 5.515,41.583 5.333 C 41.858 5.151,42.008 5.002,41.917 5.002 C 41.825 5.002,41.525 5.151,41.250 5.333 M39.573 6.016 C 39.511 6.117,39.225 6.302,38.938 6.427 C 38.651 6.551,38.529 6.656,38.667 6.660 C 38.926 6.666,40.000 6.070,40.000 5.919 C 40.000 5.760,39.687 5.832,39.573 6.016 M37.859 6.875 C 37.745 6.990,37.412 7.178,37.118 7.293 C 36.593 7.499,36.592 7.501,37.070 7.408 C 37.536 7.317,38.546 6.667,38.222 6.667 C 38.137 6.667,37.973 6.760,37.859 6.875 M35.857 7.848 C 35.640 8.023,35.532 8.167,35.616 8.167 C 35.840 8.167,36.431 7.709,36.333 7.611 C 36.287 7.566,36.073 7.672,35.857 7.848 M33.833 8.942 C 32.424 9.706,32.241 9.828,32.509 9.831 C 32.652 9.832,33.023 9.646,33.333 9.417 C 33.644 9.188,33.987 9.000,34.095 9.000 C 34.204 9.000,34.386 8.887,34.500 8.750 C 34.755 8.442,34.754 8.443,33.833 8.942 M31.906 10.016 C 31.844 10.117,31.559 10.302,31.272 10.427 C 30.982 10.553,30.876 10.657,31.032 10.660 C 31.295 10.666,32.390 9.850,32.135 9.839 C 32.071 9.836,31.969 9.916,31.906 10.016 M30.017 11.098 C 29.401 11.535,29.417 11.606,30.066 11.311 C 30.295 11.207,30.521 11.019,30.569 10.894 C 30.675 10.619,30.709 10.606,30.017 11.098 M27.875 12.600 C 27.669 12.835,27.588 12.998,27.694 12.963 C 27.874 12.903,28.450 12.163,28.312 12.170 C 28.278 12.171,28.081 12.365,27.875 12.600 M26.782 13.422 C 26.525 13.648,26.380 13.833,26.459 13.833 C 26.611 13.833,27.333 13.209,27.333 13.077 C 27.333 12.952,27.274 12.989,26.782 13.422 M24.487 15.107 C 24.102 15.525,24.100 15.536,24.449 15.355 C 24.836 15.154,25.081 14.859,24.962 14.740 C 24.922 14.700,24.709 14.865,24.487 15.107 M22.267 17.097 C 21.360 17.960,20.573 18.669,20.517 18.672 C 20.462 18.675,20.273 18.881,20.098 19.130 C 19.762 19.608,20.169 19.298,21.253 18.250 C 21.443 18.067,22.148 17.407,22.819 16.784 C 23.491 16.161,24.013 15.624,23.978 15.589 C 23.944 15.555,23.173 16.233,22.267 17.097 M18.983 20.226 C 18.763 20.442,18.208 21.059,17.750 21.598 C 17.292 22.136,16.542 22.983,16.083 23.480 C 15.625 23.976,15.408 24.299,15.601 24.198 C 15.795 24.097,16.070 23.842,16.214 23.632 C 16.357 23.422,16.785 22.912,17.164 22.500 C 19.060 20.436,20.130 19.098,18.983 20.226 M13.469 26.624 C 12.987 27.185,12.958 27.413,13.427 26.963 C 13.687 26.714,13.859 26.470,13.810 26.421 C 13.760 26.372,13.607 26.463,13.469 26.624 M12.542 27.925 C 12.335 28.123,12.167 28.336,12.167 28.399 C 12.167 28.462,12.369 28.326,12.617 28.096 C 12.865 27.866,13.033 27.653,12.992 27.622 C 12.951 27.591,12.748 27.727,12.542 27.925 M11.333 29.503 C 11.333 29.627,11.166 29.906,10.962 30.124 C 10.715 30.387,10.679 30.485,10.855 30.417 C 11.173 30.295,11.602 29.546,11.445 29.389 C 11.383 29.328,11.333 29.379,11.333 29.503 M10.500 30.891 C 10.500 31.014,10.350 31.251,10.167 31.417 C 9.983 31.583,9.836 31.800,9.839 31.901 C 9.846 32.172,10.667 31.188,10.667 30.907 C 10.667 30.775,10.629 30.667,10.583 30.667 C 10.537 30.667,10.500 30.768,10.500 30.891 M9.667 32.294 C 9.667 32.394,9.549 32.594,9.405 32.738 C 9.261 32.882,9.221 33.000,9.316 33.000 C 9.527 33.000,9.898 32.343,9.764 32.208 C 9.710 32.155,9.667 32.193,9.667 32.294 M8.530 34.162 C 8.024 34.846,8.075 34.968,8.604 34.339 C 8.845 34.053,9.008 33.786,8.967 33.745 C 8.926 33.704,8.730 33.892,8.530 34.162 M7.767 35.535 L 7.456 36.083 7.831 35.726 C 8.037 35.529,8.177 35.282,8.143 35.178 C 8.108 35.073,7.939 35.234,7.767 35.535 M6.942 37.278 C 6.773 37.504,6.673 37.728,6.720 37.776 C 6.768 37.823,6.935 37.666,7.093 37.426 C 7.463 36.860,7.343 36.742,6.942 37.278 M6.216 38.871 C 5.838 39.359,5.815 39.557,6.176 39.213 C 6.390 39.009,6.523 38.801,6.473 38.751 C 6.422 38.700,6.307 38.754,6.216 38.871 M354.408 44.250 C 354.408 47.183,354.430 48.360,354.458 46.865 C 354.486 45.369,354.486 42.969,354.458 41.531 C 354.430 40.093,354.408 41.317,354.408 44.250 M5.680 40.019 C 5.673 40.167,5.517 40.479,5.333 40.712 C 5.150 40.945,5.005 41.237,5.012 41.360 C 5.020 41.525,5.053 41.518,5.137 41.333 C 5.199 41.196,5.388 40.879,5.557 40.630 C 5.726 40.381,5.826 40.081,5.779 39.964 C 5.721 39.820,5.689 39.839,5.680 40.019 M4.853 42.088 C 4.842 42.274,4.717 42.593,4.574 42.796 C 4.422 43.013,4.389 43.167,4.495 43.167 C 4.723 43.167,5.036 42.361,4.943 42.013 C 4.893 41.829,4.866 41.851,4.853 42.088 M4.019 44.404 C 4.009 44.580,3.875 44.861,3.723 45.030 C 3.571 45.198,3.490 45.379,3.543 45.432 C 3.708 45.597,4.199 44.700,4.116 44.383 C 4.046 44.111,4.037 44.113,4.019 44.404 M3.029 47.130 C 2.638 47.931,2.626 48.098,2.999 47.544 C 3.199 47.248,3.337 46.931,3.306 46.841 C 3.275 46.751,3.150 46.881,3.029 47.130 M2.542 49.083 C 2.544 49.450,2.578 49.580,2.618 49.373 C 2.658 49.166,2.656 48.866,2.615 48.706 C 2.573 48.547,2.540 48.717,2.542 49.083 M2.125 50.491 C 1.738 51.390,1.760 51.539,2.183 50.880 C 2.372 50.585,2.502 50.224,2.472 50.078 C 2.439 49.920,2.299 50.087,2.125 50.491 M354.580 70.167 C 354.580 80.388,354.600 84.569,354.625 79.458 C 354.649 74.348,354.649 65.985,354.625 60.875 C 354.600 55.765,354.580 59.946,354.580 70.167 M1.705 52.500 C 1.705 52.821,1.740 52.952,1.782 52.792 C 1.823 52.631,1.823 52.369,1.782 52.208 C 1.740 52.048,1.705 52.179,1.705 52.500 M1.375 53.619 C 1.077 54.259,1.127 54.682,1.434 54.115 C 1.573 53.858,1.664 53.540,1.635 53.409 C 1.603 53.262,1.504 53.342,1.375 53.619 M0.832 57.292 C 0.831 58.196,0.526 59.167,0.242 59.167 C 0.084 59.167,0.000 59.341,0.000 59.667 C 0.000 60.405,0.382 60.281,0.644 59.458 C 0.894 58.674,1.106 56.667,0.939 56.667 C 0.881 56.667,0.833 56.948,0.832 57.292 " stroke="none" fill="#74c48c" fill-rule="evenodd"></path><path id="path3" d="M-0.000 28.264 C -0.000 50.801,0.042 56.514,0.208 56.459 C 0.342 56.415,0.487 55.725,0.611 54.544 C 0.718 53.518,0.915 52.525,1.053 52.308 C 1.190 52.093,1.355 51.429,1.421 50.833 C 1.486 50.237,1.681 49.472,1.853 49.132 C 2.026 48.792,2.167 48.304,2.167 48.047 C 2.167 47.413,2.451 46.466,2.686 46.322 C 2.791 46.256,2.939 45.810,3.015 45.330 C 3.091 44.850,3.272 44.327,3.417 44.166 C 3.562 44.006,3.725 43.584,3.779 43.229 C 3.833 42.874,4.014 42.321,4.182 42.000 C 4.350 41.679,4.566 41.107,4.661 40.728 C 4.757 40.349,4.943 39.950,5.074 39.841 C 5.205 39.733,5.362 39.405,5.424 39.113 C 5.486 38.822,5.668 38.433,5.829 38.250 C 5.991 38.067,6.175 37.698,6.238 37.430 C 6.302 37.162,6.499 36.758,6.677 36.532 C 6.855 36.306,7.000 35.992,7.000 35.833 C 7.000 35.675,7.140 35.366,7.310 35.147 C 7.481 34.929,7.679 34.563,7.750 34.333 C 7.821 34.104,8.056 33.705,8.273 33.446 C 8.489 33.186,8.667 32.897,8.667 32.803 C 8.667 32.709,8.854 32.409,9.083 32.136 C 9.312 31.864,9.500 31.546,9.500 31.430 C 9.500 31.313,9.646 31.086,9.824 30.925 C 10.002 30.764,10.196 30.414,10.254 30.148 C 10.313 29.882,10.504 29.587,10.680 29.493 C 10.856 29.399,11.000 29.216,11.000 29.087 C 11.000 28.958,11.131 28.754,11.292 28.633 C 11.452 28.512,11.696 28.217,11.833 27.977 C 12.376 27.030,13.012 26.167,13.169 26.167 C 13.259 26.167,13.333 26.083,13.333 25.980 C 13.333 25.878,13.540 25.553,13.792 25.258 C 14.044 24.964,14.400 24.533,14.583 24.300 C 15.114 23.628,16.654 21.912,17.858 20.653 C 18.468 20.016,19.009 19.383,19.061 19.247 C 19.113 19.111,19.234 19.000,19.330 19.000 C 19.425 19.000,20.163 18.344,20.969 17.542 C 22.739 15.780,24.561 14.167,24.781 14.167 C 24.870 14.167,25.118 13.979,25.333 13.750 C 25.549 13.521,25.822 13.333,25.940 13.333 C 26.058 13.333,26.235 13.183,26.333 13.000 C 26.431 12.817,26.593 12.667,26.692 12.667 C 26.791 12.667,27.129 12.442,27.442 12.167 C 27.755 11.892,28.103 11.667,28.216 11.667 C 28.328 11.667,28.513 11.517,28.628 11.333 C 28.742 11.150,28.918 11.000,29.019 11.000 C 29.120 11.000,29.425 10.813,29.697 10.583 C 29.969 10.354,30.307 10.167,30.447 10.167 C 30.587 10.167,30.925 9.979,31.197 9.750 C 31.469 9.521,31.827 9.333,31.992 9.333 C 32.157 9.333,32.389 9.217,32.508 9.074 C 32.627 8.931,32.954 8.703,33.237 8.566 C 33.519 8.430,34.125 8.101,34.583 7.836 C 35.042 7.570,35.604 7.265,35.833 7.159 C 37.371 6.445,37.967 6.172,38.333 6.015 C 38.563 5.916,38.862 5.766,39.000 5.681 C 39.760 5.213,41.004 4.694,41.615 4.591 C 42.000 4.527,42.399 4.371,42.503 4.246 C 42.607 4.121,43.118 3.931,43.638 3.825 C 44.158 3.719,44.697 3.532,44.836 3.409 C 44.975 3.286,45.451 3.104,45.895 3.005 C 46.338 2.906,46.912 2.715,47.169 2.582 C 47.427 2.449,48.076 2.291,48.611 2.231 C 49.146 2.172,49.883 1.991,50.250 1.830 C 50.617 1.669,51.329 1.483,51.833 1.418 C 52.337 1.353,53.179 1.157,53.703 0.983 C 54.227 0.809,55.090 0.660,55.620 0.652 C 57.077 0.630,58.215 0.441,58.292 0.208 C 58.347 0.042,52.451 0.000,29.181 0.000 L 0.000 0.000 -0.000 28.264 M88.167 44.333 C 88.167 83.630,88.195 88.667,88.417 88.667 C 88.638 88.667,88.667 83.630,88.667 44.333 C 88.667 5.037,88.638 0.000,88.417 0.000 C 88.195 0.000,88.167 5.037,88.167 44.333 M265.826 12.708 C 265.819 25.531,265.690 30.500,265.349 31.138 C 265.247 31.329,265.061 32.463,264.936 33.658 C 264.811 34.854,264.628 35.930,264.528 36.050 C 264.428 36.170,264.260 36.827,264.155 37.509 C 264.049 38.192,263.862 38.946,263.739 39.186 C 263.615 39.426,263.439 40.091,263.347 40.664 C 263.254 41.238,263.073 41.868,262.945 42.064 C 262.816 42.261,262.656 42.683,262.589 43.002 C 262.522 43.322,262.331 43.883,262.164 44.250 C 261.997 44.617,261.742 45.273,261.597 45.708 C 260.977 47.571,260.760 48.106,260.472 48.481 C 260.304 48.699,260.167 49.008,260.167 49.167 C 260.167 49.325,260.025 49.635,259.852 49.855 C 259.679 50.075,259.460 50.534,259.366 50.875 C 259.272 51.216,259.039 51.694,258.847 51.937 C 258.656 52.179,258.500 52.501,258.500 52.652 C 258.500 52.803,258.371 53.110,258.214 53.335 C 257.947 53.716,257.562 54.385,256.921 55.583 C 256.774 55.858,256.433 56.421,256.162 56.833 C 255.892 57.246,255.530 57.884,255.358 58.252 C 255.186 58.620,254.923 59.023,254.773 59.148 C 254.623 59.272,254.500 59.451,254.500 59.545 C 254.500 59.638,254.344 59.873,254.152 60.066 C 253.961 60.259,253.405 60.979,252.915 61.667 C 252.426 62.354,251.908 63.067,251.764 63.250 C 251.619 63.433,251.220 63.953,250.876 64.404 C 248.849 67.061,242.135 73.497,239.673 75.142 C 239.447 75.293,239.080 75.585,238.857 75.792 C 238.634 75.998,238.368 76.167,238.266 76.167 C 238.164 76.167,237.987 76.317,237.872 76.500 C 237.758 76.683,237.581 76.833,237.479 76.833 C 237.377 76.833,237.022 77.061,236.689 77.339 C 236.356 77.617,235.988 77.922,235.871 78.016 C 235.755 78.110,235.403 78.294,235.091 78.424 C 234.778 78.555,234.475 78.739,234.417 78.833 C 234.358 78.928,234.072 79.119,233.780 79.258 C 233.489 79.398,232.950 79.696,232.583 79.922 C 232.217 80.148,231.530 80.516,231.057 80.741 C 230.584 80.965,230.152 81.222,230.097 81.312 C 230.041 81.401,229.753 81.527,229.456 81.592 C 229.160 81.657,228.738 81.850,228.519 82.022 C 228.301 82.193,228.007 82.333,227.867 82.333 C 227.727 82.333,227.306 82.510,226.931 82.726 C 226.557 82.943,226.031 83.172,225.763 83.237 C 225.495 83.301,225.092 83.499,224.866 83.677 C 224.640 83.855,224.259 84.002,224.019 84.005 C 223.779 84.008,223.208 84.195,222.750 84.420 C 222.292 84.646,221.766 84.831,221.581 84.832 C 221.396 84.833,220.984 84.973,220.664 85.144 C 220.345 85.315,219.684 85.541,219.196 85.645 C 218.707 85.750,218.167 85.910,217.996 86.002 C 217.825 86.094,217.109 86.279,216.406 86.413 C 215.703 86.548,215.040 86.731,214.933 86.820 C 214.825 86.909,214.215 87.064,213.577 87.163 C 212.939 87.263,212.079 87.452,211.667 87.585 C 211.254 87.717,210.062 87.905,209.017 88.002 C 207.072 88.182,206.833 88.237,206.833 88.510 C 206.833 88.607,225.264 88.667,255.667 88.667 C 296.990 88.667,304.500 88.631,304.500 88.438 C 304.500 88.179,304.015 88.057,302.380 87.905 C 301.758 87.848,300.712 87.620,300.055 87.400 C 299.398 87.180,298.686 87.000,298.472 86.999 C 298.258 86.998,297.868 86.886,297.605 86.748 C 297.341 86.611,296.675 86.382,296.125 86.239 C 295.575 86.097,294.965 85.880,294.770 85.759 C 294.576 85.637,294.121 85.485,293.759 85.422 C 293.397 85.358,292.918 85.162,292.695 84.986 C 292.471 84.810,292.159 84.667,292.000 84.667 C 291.841 84.667,291.533 84.528,291.314 84.358 C 291.096 84.188,290.636 83.957,290.294 83.845 C 289.952 83.734,289.630 83.575,289.579 83.493 C 289.528 83.410,289.171 83.189,288.785 83.001 C 288.399 82.813,287.756 82.454,287.357 82.204 C 286.957 81.955,286.382 81.600,286.078 81.417 C 282.633 79.336,278.116 75.307,275.709 72.167 C 275.323 71.662,274.893 71.131,274.753 70.986 C 274.614 70.841,274.500 70.670,274.500 70.606 C 274.500 70.543,274.142 70.024,273.705 69.454 C 273.268 68.883,272.817 68.229,272.702 68.000 C 272.588 67.771,272.274 67.246,272.005 66.833 C 271.735 66.421,271.245 65.521,270.914 64.833 C 270.584 64.146,270.242 63.471,270.155 63.333 C 270.069 63.196,269.917 62.896,269.818 62.667 C 269.719 62.438,269.498 61.950,269.327 61.583 C 268.711 60.263,267.390 56.245,267.241 55.238 C 267.174 54.786,267.010 54.117,266.877 53.750 C 266.744 53.383,266.531 52.221,266.404 51.167 C 266.276 50.112,266.098 48.725,266.008 48.083 C 265.799 46.594,265.796 42.103,266.003 40.583 C 266.091 39.942,266.243 38.629,266.342 37.667 C 266.441 36.704,266.662 35.504,266.833 35.000 C 267.004 34.496,267.194 33.708,267.255 33.250 C 267.316 32.792,267.448 32.267,267.547 32.083 C 267.646 31.900,267.859 31.300,268.020 30.750 C 268.419 29.384,268.954 27.884,269.327 27.083 C 269.498 26.717,269.719 26.229,269.818 26.000 C 269.917 25.771,270.068 25.471,270.154 25.333 C 270.240 25.196,270.584 24.521,270.919 23.833 C 271.662 22.310,273.317 19.563,274.083 18.583 C 274.226 18.400,274.809 17.650,275.378 16.917 C 275.948 16.183,276.489 15.498,276.582 15.394 C 278.358 13.396,279.297 12.482,281.250 10.851 C 283.277 9.159,283.985 8.622,285.750 7.441 C 286.902 6.670,288.066 5.900,288.228 5.802 C 288.937 5.374,293.345 3.324,293.750 3.234 C 294.025 3.174,294.475 2.989,294.750 2.825 C 295.595 2.320,297.034 1.811,298.083 1.646 C 298.633 1.559,299.496 1.350,300.000 1.182 C 300.504 1.014,301.517 0.828,302.250 0.770 C 303.824 0.644,304.537 0.473,304.628 0.199 C 304.679 0.045,300.262 0.000,285.264 0.000 L 265.833 0.000 265.826 12.708 M315.667 0.231 C 315.667 0.495,316.117 0.597,318.250 0.820 C 319.075 0.906,320.012 1.086,320.333 1.221 C 320.654 1.355,321.453 1.548,322.109 1.648 C 323.292 1.830,324.358 2.201,325.523 2.836 C 325.856 3.018,326.231 3.167,326.356 3.166 C 326.481 3.166,327.371 3.548,328.333 4.015 C 329.296 4.481,330.496 5.063,331.000 5.307 C 331.504 5.550,332.043 5.851,332.197 5.974 C 332.351 6.097,332.701 6.322,332.975 6.474 C 333.249 6.626,334.013 7.125,334.672 7.583 C 335.332 8.042,336.035 8.529,336.235 8.667 C 338.911 10.512,342.674 14.110,344.548 16.615 C 345.697 18.150,345.907 18.428,346.535 19.250 C 347.184 20.099,347.608 20.733,347.988 21.422 C 348.188 21.786,348.574 22.458,348.844 22.917 C 349.114 23.375,349.377 23.863,349.429 24.000 C 349.557 24.340,350.488 26.337,350.712 26.750 C 351.133 27.529,352.573 31.782,352.819 32.971 C 352.919 33.459,353.081 34.006,353.177 34.185 C 353.273 34.365,353.458 35.315,353.589 36.298 C 353.720 37.280,353.837 38.158,353.849 38.250 C 354.054 39.775,354.149 33.708,354.157 18.542 L 354.167 0.000 334.917 0.000 C 318.602 0.000,315.667 0.035,315.667 0.231 M353.790 50.750 C 353.732 51.117,353.635 51.867,353.576 52.417 C 353.516 52.967,353.363 53.667,353.236 53.973 C 353.109 54.279,352.922 55.029,352.822 55.640 C 352.722 56.250,352.502 57.125,352.335 57.583 C 352.167 58.042,351.830 58.979,351.585 59.667 C 351.340 60.354,351.005 61.217,350.841 61.583 C 350.276 62.843,349.455 64.584,349.308 64.833 C 349.226 64.971,349.044 65.337,348.902 65.647 C 348.760 65.958,348.509 66.408,348.344 66.647 C 348.179 66.887,347.812 67.458,347.529 67.917 C 346.906 68.924,346.364 69.704,345.917 70.241 C 345.733 70.461,345.396 70.916,345.167 71.251 C 343.672 73.439,340.119 77.059,337.698 78.860 C 336.810 79.521,335.971 80.160,335.833 80.280 C 335.242 80.796,334.548 81.306,334.083 81.566 C 333.808 81.721,333.283 82.024,332.917 82.242 C 331.622 83.009,326.531 85.500,326.258 85.500 C 326.106 85.500,325.667 85.642,325.283 85.814 C 324.898 85.987,324.321 86.184,324.000 86.251 C 323.679 86.318,323.209 86.480,322.954 86.610 C 322.700 86.740,322.064 86.925,321.541 87.022 C 321.018 87.119,320.382 87.305,320.128 87.437 C 319.796 87.608,316.589 88.137,315.708 88.165 C 315.685 88.166,315.667 88.279,315.667 88.417 C 315.667 88.637,317.917 88.667,334.917 88.667 L 354.167 88.667 354.154 70.125 C 354.148 59.927,354.087 51.246,354.020 50.833 L 353.897 50.083 353.790 50.750 " stroke="none" fill="transparent" fill-rule="evenodd"></path><path id="path4" d="M60.447 0.231 C 60.363 0.449,59.332 0.635,56.667 0.913 C 56.163 0.966,55.262 1.120,54.667 1.256 C 54.071 1.392,53.058 1.609,52.417 1.739 C 50.515 2.125,49.450 2.475,50.134 2.489 C 50.437 2.495,51.000 2.357,51.384 2.183 C 51.769 2.008,52.787 1.781,53.647 1.677 C 54.508 1.573,55.348 1.415,55.515 1.325 C 55.682 1.236,57.003 1.050,58.451 0.913 C 62.312 0.546,62.667 0.489,62.667 0.229 C 62.667 -0.099,60.573 -0.096,60.447 0.231 M87.915 44.333 C 87.915 68.762,87.935 78.756,87.958 66.542 C 87.982 54.327,87.982 34.340,87.958 22.125 C 87.935 9.910,87.915 19.904,87.915 44.333 M89.082 44.333 C 89.082 68.762,89.101 78.756,89.125 66.542 C 89.149 54.327,89.149 34.340,89.125 22.125 C 89.101 9.910,89.082 19.904,89.082 44.333 M265.321 13.250 C 265.238 26.222,265.225 26.626,264.870 28.167 C 264.621 29.243,264.504 30.299,264.502 31.465 C 264.500 32.915,264.449 33.250,264.167 33.632 C 263.915 33.974,263.808 34.465,263.727 35.667 C 263.646 36.864,263.548 37.319,263.325 37.534 C 263.120 37.732,262.993 38.213,262.908 39.114 C 262.834 39.909,262.674 40.572,262.494 40.830 C 262.332 41.061,262.155 41.617,262.100 42.065 C 262.043 42.533,261.883 42.965,261.726 43.081 C 261.563 43.199,261.400 43.659,261.326 44.207 C 261.245 44.799,261.073 45.260,260.850 45.483 C 260.624 45.709,260.500 46.046,260.500 46.434 C 260.500 46.832,260.359 47.203,260.083 47.530 C 259.854 47.803,259.667 48.236,259.667 48.492 C 259.667 48.779,259.534 49.048,259.323 49.188 C 259.101 49.335,258.945 49.669,258.884 50.125 C 258.827 50.553,258.702 50.833,258.569 50.833 C 258.378 50.833,258.004 51.767,258.001 52.252 C 258.000 52.344,257.850 52.513,257.667 52.628 C 257.459 52.758,257.333 53.017,257.333 53.316 C 257.333 53.643,257.201 53.882,256.917 54.068 C 256.688 54.218,256.500 54.457,256.500 54.598 C 256.500 54.740,256.313 55.101,256.083 55.402 C 255.854 55.702,255.667 56.054,255.667 56.184 C 255.667 56.314,255.523 56.509,255.348 56.619 C 255.173 56.728,254.976 57.064,254.910 57.365 C 254.844 57.666,254.684 57.989,254.555 58.084 C 254.425 58.178,254.229 58.408,254.118 58.594 C 254.007 58.780,253.767 59.184,253.583 59.491 C 253.400 59.798,253.081 60.201,252.875 60.388 C 252.669 60.574,252.500 60.863,252.500 61.030 C 252.500 61.197,252.389 61.333,252.252 61.333 C 252.116 61.333,251.901 61.577,251.775 61.875 C 251.649 62.173,251.386 62.560,251.190 62.734 C 250.994 62.909,250.833 63.150,250.833 63.270 C 250.833 63.390,250.683 63.569,250.500 63.667 C 250.317 63.765,250.167 63.919,250.167 64.008 C 250.167 64.368,243.070 71.452,242.458 71.703 C 242.298 71.769,242.167 71.925,242.167 72.051 C 242.167 72.177,241.979 72.365,241.750 72.470 C 241.521 72.574,241.333 72.774,241.333 72.913 C 241.333 73.053,241.220 73.167,241.082 73.167 C 240.944 73.167,240.673 73.348,240.481 73.570 C 240.288 73.792,239.953 74.018,239.736 74.072 C 239.520 74.126,239.263 74.320,239.166 74.502 C 239.068 74.684,238.880 74.833,238.748 74.833 C 238.616 74.833,238.385 75.021,238.235 75.250 C 238.085 75.479,237.858 75.667,237.732 75.667 C 237.606 75.667,237.409 75.817,237.295 76.000 C 237.180 76.183,236.998 76.333,236.889 76.333 C 236.781 76.333,236.480 76.511,236.221 76.727 C 235.962 76.944,235.585 77.173,235.384 77.236 C 235.182 77.299,234.971 77.497,234.914 77.675 C 234.850 77.877,234.661 78.000,234.414 78.000 C 234.196 78.000,233.815 78.187,233.568 78.417 C 233.320 78.646,233.009 78.833,232.875 78.833 C 232.741 78.833,232.409 79.021,232.136 79.250 C 231.864 79.479,231.539 79.667,231.413 79.667 C 231.288 79.667,231.088 79.805,230.968 79.975 C 230.848 80.144,230.467 80.335,230.121 80.400 C 229.775 80.464,229.401 80.663,229.289 80.842 C 229.160 81.049,228.902 81.167,228.576 81.167 C 228.292 81.167,227.813 81.352,227.500 81.583 C 227.189 81.812,226.777 82.000,226.583 82.000 C 226.390 82.000,225.977 82.187,225.667 82.417 C 225.356 82.646,224.929 82.833,224.718 82.833 C 224.506 82.833,224.194 82.972,224.025 83.142 C 223.846 83.321,223.337 83.501,222.816 83.569 C 222.322 83.635,221.767 83.824,221.583 83.989 C 221.400 84.154,220.879 84.337,220.426 84.396 C 219.973 84.455,219.448 84.644,219.259 84.816 C 219.026 85.030,218.587 85.152,217.881 85.200 C 217.192 85.247,216.734 85.372,216.511 85.574 C 216.284 85.779,215.762 85.917,214.891 86.002 C 213.996 86.090,213.546 86.212,213.405 86.405 C 213.247 86.620,212.774 86.711,211.272 86.811 C 209.909 86.903,209.255 87.017,209.046 87.201 C 208.811 87.407,207.989 87.496,205.083 87.631 C 201.450 87.799,200.500 87.968,200.500 88.443 C 200.500 88.762,203.759 88.766,203.882 88.448 C 203.937 88.304,204.612 88.158,205.858 88.020 C 209.096 87.660,210.104 87.516,210.544 87.348 C 210.778 87.259,211.445 87.134,212.026 87.070 C 212.608 87.006,213.629 86.776,214.297 86.560 C 214.964 86.344,215.714 86.165,215.963 86.163 C 216.213 86.161,216.732 86.016,217.118 85.841 C 217.504 85.666,218.179 85.470,218.618 85.406 C 219.057 85.342,219.679 85.159,220.000 84.998 C 220.321 84.838,220.846 84.651,221.167 84.581 C 221.487 84.512,222.011 84.316,222.331 84.144 C 222.650 83.973,223.070 83.833,223.264 83.833 C 223.458 83.833,223.947 83.658,224.350 83.444 C 224.753 83.231,225.302 83.001,225.570 82.934 C 225.838 82.867,226.242 82.667,226.468 82.490 C 226.694 82.312,226.989 82.167,227.125 82.167 C 227.260 82.167,227.644 82.022,227.977 81.846 C 228.311 81.669,229.221 81.217,230.000 80.840 C 230.779 80.464,231.717 79.975,232.083 79.755 C 232.450 79.535,233.088 79.162,233.500 78.926 C 235.183 77.963,236.349 77.187,238.000 75.929 C 238.779 75.335,239.744 74.606,240.143 74.308 C 240.543 74.010,241.105 73.546,241.393 73.275 C 241.681 73.005,242.662 72.139,243.573 71.350 C 246.125 69.141,250.329 64.748,251.045 63.542 C 251.222 63.244,251.436 63.000,251.521 63.000 C 251.605 63.000,251.748 62.831,251.838 62.625 C 251.928 62.419,252.265 61.913,252.587 61.500 C 252.909 61.087,253.328 60.506,253.519 60.208 C 253.710 59.910,253.934 59.667,254.016 59.667 C 254.099 59.667,254.167 59.585,254.167 59.486 C 254.167 59.386,254.376 58.992,254.631 58.611 C 255.207 57.750,255.401 57.427,255.854 56.583 C 256.051 56.217,256.268 55.879,256.337 55.833 C 256.406 55.788,256.587 55.487,256.739 55.167 C 256.891 54.846,257.234 54.208,257.502 53.750 C 257.770 53.292,258.041 52.774,258.104 52.600 C 258.167 52.425,258.432 51.883,258.693 51.394 C 258.953 50.906,259.167 50.402,259.167 50.276 C 259.167 50.149,259.306 49.866,259.476 49.647 C 259.646 49.429,259.875 48.975,259.984 48.638 C 260.094 48.302,260.292 47.936,260.425 47.826 C 260.558 47.716,260.667 47.466,260.668 47.271 C 260.669 47.076,260.854 46.542,261.080 46.083 C 261.305 45.625,261.492 45.097,261.495 44.910 C 261.498 44.723,261.640 44.295,261.812 43.959 C 261.983 43.623,262.211 43.000,262.318 42.575 C 262.425 42.150,262.618 41.641,262.746 41.443 C 262.875 41.245,263.032 40.671,263.097 40.167 C 263.161 39.662,263.344 38.912,263.503 38.500 C 263.662 38.087,263.849 37.339,263.917 36.837 C 263.986 36.334,264.143 35.636,264.267 35.284 C 264.391 34.933,264.573 33.806,264.672 32.781 C 264.770 31.756,264.975 30.467,265.128 29.917 C 265.391 28.963,265.656 6.319,265.462 1.333 C 265.432 0.554,265.368 5.917,265.321 13.250 M354.314 23.792 C 354.279 36.877,354.287 56.846,354.333 68.167 C 354.394 83.040,354.425 76.440,354.448 44.375 C 354.466 19.969,354.457 -0.000,354.429 -0.000 C 354.401 -0.000,354.349 10.706,354.314 23.792 M399.583 44.333 C 399.583 79.689,399.626 88.667,399.792 88.667 C 399.958 88.667,400.000 79.689,400.000 44.333 C 400.000 8.978,399.958 0.000,399.792 0.000 C 399.626 0.000,399.583 8.978,399.583 44.333 M47.417 2.940 C 46.683 3.169,45.763 3.501,45.371 3.678 C 44.979 3.855,44.529 4.001,44.371 4.002 C 44.213 4.002,43.708 4.188,43.250 4.413 C 42.792 4.638,42.272 4.825,42.094 4.828 C 41.917 4.831,41.429 4.991,41.011 5.184 C 40.211 5.553,38.259 6.462,37.833 6.663 C 37.696 6.728,37.433 6.863,37.250 6.964 C 37.067 7.064,36.354 7.420,35.667 7.754 C 34.409 8.366,34.062 8.555,31.412 10.083 C 28.811 11.582,29.269 11.270,25.017 14.452 C 23.133 15.861,18.806 20.031,16.838 22.333 C 16.250 23.021,15.686 23.658,15.585 23.750 C 15.278 24.029,13.610 26.093,13.167 26.743 C 12.938 27.079,12.449 27.743,12.081 28.219 C 11.712 28.694,11.193 29.421,10.927 29.833 C 10.660 30.246,10.268 30.850,10.054 31.176 C 9.841 31.501,9.667 31.852,9.667 31.955 C 9.667 32.057,9.495 32.353,9.285 32.612 C 9.075 32.871,8.809 33.271,8.694 33.500 C 8.578 33.729,8.301 34.217,8.076 34.583 C 7.852 34.950,7.553 35.512,7.411 35.833 C 7.005 36.750,6.438 37.952,5.603 39.667 C 5.179 40.537,4.830 41.362,4.827 41.500 C 4.825 41.637,4.638 42.125,4.413 42.583 C 4.188 43.042,4.002 43.551,4.002 43.715 C 4.001 43.879,3.859 44.292,3.687 44.632 C 3.515 44.972,3.318 45.512,3.250 45.833 C 3.182 46.154,2.985 46.695,2.813 47.035 C 2.641 47.375,2.508 47.863,2.517 48.118 C 2.534 48.573,2.537 48.571,2.662 48.043 C 2.733 47.745,2.873 47.403,2.974 47.281 C 3.075 47.160,3.243 46.653,3.347 46.155 C 3.452 45.657,3.635 45.137,3.755 45.000 C 3.874 44.862,4.025 44.450,4.090 44.083 C 4.154 43.717,4.342 43.192,4.506 42.917 C 4.671 42.642,4.859 42.117,4.924 41.750 C 4.989 41.383,5.143 40.967,5.267 40.825 C 5.390 40.683,5.608 40.237,5.750 39.833 C 5.892 39.430,6.109 38.984,6.232 38.842 C 6.355 38.700,6.507 38.364,6.571 38.096 C 6.635 37.829,6.833 37.425,7.010 37.199 C 7.188 36.973,7.333 36.685,7.333 36.558 C 7.333 36.299,8.128 34.759,8.629 34.048 C 8.809 33.793,9.009 33.415,9.073 33.208 C 9.137 33.002,9.251 32.833,9.326 32.833 C 9.402 32.833,9.578 32.548,9.718 32.199 C 9.857 31.850,10.090 31.466,10.236 31.345 C 10.381 31.225,10.500 31.028,10.500 30.909 C 10.500 30.790,10.687 30.469,10.917 30.197 C 11.146 29.925,11.333 29.618,11.333 29.517 C 11.333 29.415,11.521 29.168,11.750 28.969 C 11.979 28.770,12.167 28.535,12.167 28.447 C 12.167 28.360,12.335 28.124,12.542 27.924 C 12.748 27.724,13.046 27.341,13.204 27.072 C 13.611 26.378,13.868 26.011,14.250 25.577 C 14.433 25.369,14.696 25.064,14.833 24.899 C 14.971 24.734,15.496 24.142,16.000 23.582 C 16.504 23.023,17.292 22.129,17.750 21.597 C 19.059 20.077,22.062 17.181,24.083 15.490 C 24.725 14.953,25.421 14.361,25.631 14.174 C 25.840 13.986,26.074 13.833,26.150 13.833 C 26.314 13.833,27.441 13.000,27.934 12.513 C 28.127 12.323,28.367 12.167,28.466 12.167 C 28.566 12.167,28.746 12.035,28.866 11.875 C 29.074 11.598,29.575 11.287,31.083 10.500 C 31.450 10.309,32.050 9.968,32.417 9.743 C 32.783 9.518,33.392 9.185,33.770 9.002 C 34.147 8.820,34.550 8.557,34.665 8.419 C 34.780 8.280,35.005 8.167,35.165 8.167 C 35.324 8.167,35.634 8.028,35.853 7.858 C 36.071 7.688,36.550 7.453,36.917 7.337 C 37.283 7.220,37.696 7.031,37.833 6.917 C 37.971 6.802,38.359 6.620,38.695 6.513 C 39.031 6.405,39.393 6.212,39.498 6.086 C 39.604 5.959,39.928 5.804,40.220 5.743 C 40.511 5.681,40.975 5.497,41.250 5.333 C 41.525 5.169,42.064 4.984,42.449 4.921 C 42.833 4.859,43.233 4.705,43.337 4.579 C 43.441 4.454,43.951 4.265,44.471 4.158 C 44.991 4.052,45.529 3.868,45.667 3.750 C 45.804 3.632,46.367 3.443,46.917 3.332 C 47.467 3.221,48.067 3.050,48.250 2.952 C 48.433 2.855,48.808 2.721,49.083 2.655 C 49.531 2.547,49.539 2.534,49.167 2.529 C 48.938 2.525,48.150 2.711,47.417 2.940 M2.199 49.424 C 2.079 49.878,1.845 50.850,1.679 51.583 C 1.512 52.317,1.294 53.120,1.195 53.368 C 1.095 53.616,0.935 54.591,0.839 55.534 C 0.600 57.881,0.501 58.333,0.231 58.333 C 0.096 58.333,0.000 58.506,0.000 58.750 C 0.000 59.407,0.464 59.258,0.648 58.542 C 0.737 58.198,0.886 57.054,0.979 56.000 C 1.072 54.946,1.257 53.858,1.390 53.583 C 1.523 53.308,1.685 52.633,1.749 52.083 C 1.813 51.533,2.013 50.759,2.192 50.363 C 2.372 49.967,2.496 49.408,2.468 49.120 C 2.420 48.637,2.400 48.660,2.199 49.424 " stroke="none" fill="#87cc9e" fill-rule="evenodd"></path></g></svg>