<svg xmlns="http://www.w3.org/2000/svg" width="433" height="96" viewBox="0 0 433 96"><defs><style>.a{fill:#23a09b;}.b{fill:#76c488;}.c{fill:#356863;}.d{fill:#a7e1d5;}</style></defs><g transform="translate(-859 -622)"><path class="a" d="M0,0H96a0,0,0,0,1,0,0V24A72,72,0,0,1,24,96H0a0,0,0,0,1,0,0V0A0,0,0,0,1,0,0Z" transform="translate(955 718) rotate(180)"/><path class="b" d="M0,0H96a0,0,0,0,1,0,0V192a0,0,0,0,1,0,0H72A72,72,0,0,1,0,120V0A0,0,0,0,1,0,0Z" transform="translate(955 718) rotate(-90)"/><rect class="c" width="96" height="49" transform="translate(1243 718) rotate(-90)"/><circle class="d" cx="48" cy="48" r="48" transform="translate(1147 622)"/></g></svg>