<svg xmlns="http://www.w3.org/2000/svg" width="16" height="16" viewBox="0 0 16 16">
  <g id="download" transform="translate(-716.229 -377.5)">
    <path id="Контур_320" data-name="Контур 320" d="M731.34,385.8a.889.889,0,0,0-.889.889v3.16a.692.692,0,0,1-.691.691H718.7a.692.692,0,0,1-.691-.691v-3.16a.889.889,0,1,0-1.777,0v3.16a2.472,2.472,0,0,0,2.469,2.47h11.062a2.473,2.473,0,0,0,2.47-2.47v-3.16A.889.889,0,0,0,731.34,385.8Z" transform="translate(0 1.185)" fill="#474747"/>
    <path id="Контур_321" data-name="Контур 321" d="M723.2,388.5a.95.95,0,0,0,.09.061.8.8,0,0,0,1.078,0,.957.957,0,0,0,.09-.061l3.95-3.951a.889.889,0,0,0-1.257-1.257l-2.433,2.433v-7.335a.889.889,0,1,0-1.777,0v7.335l-2.433-2.433a.889.889,0,0,0-1.257,1.257Z" transform="translate(0.395)" fill="#474747"/>
  </g>
</svg>
