<svg xmlns="http://www.w3.org/2000/svg" width="14.667" height="11" viewBox="0 0 14.667 11">
  <g id="envelope" transform="translate(0 -64)">
    <g id="Сгруппировать_726" data-name="Сгруппировать 726" transform="translate(0 64)">
      <g id="Сгруппировать_725" data-name="Сгруппировать 725">
        <path id="Контур_255" data-name="Контур 255" d="M7.022,64.9c2.012,1.726,5.543,4.762,6.581,5.709a.608.608,0,0,0,.887,0c1.039-.948,4.57-3.984,6.582-5.71a.312.312,0,0,0,.043-.427A1.207,1.207,0,0,0,20.156,64H7.938a1.207,1.207,0,0,0-.959.477A.312.312,0,0,0,7.022,64.9Z" transform="translate(-6.713 -64)" fill="#76c488"/>
        <path id="Контур_256" data-name="Контур 256" d="M14.49,126.44a.305.305,0,0,0-.326.044c-2.232,1.888-5.081,4.308-5.978,5.114a1.239,1.239,0,0,1-1.706,0c-.955-.859-4.155-3.572-5.977-5.113a.306.306,0,0,0-.5.233v7.666A1.222,1.222,0,0,0,1.222,135.6H13.445a1.222,1.222,0,0,0,1.222-1.219v-7.666A.3.3,0,0,0,14.49,126.44Z" transform="translate(0 -124.602)" fill="#76c488"/>
      </g>
    </g>
  </g>
</svg>
