<svg xmlns="http://www.w3.org/2000/svg" xmlns:xlink="http://www.w3.org/1999/xlink" width="433" height="384" viewBox="0 0 433 384"><defs><style>.a{fill:#fff;stroke:#707070;}.b{fill:#76c488;}.c{fill:#356863;}.d{fill:#a7e1d5;}.e{fill:#23a09b;}.f{clip-path:url(#a);}</style><clipPath id="a"><rect class="a" width="96" height="192" transform="translate(858 1054)"/></clipPath></defs><g transform="translate(-491 -384)"><rect class="b" width="96" height="96" transform="translate(491 576)"/><rect class="b" width="96" height="96" transform="translate(587 384)"/><g transform="translate(-368 43)"><rect class="c" width="96" height="49" transform="translate(1243 725) rotate(-90)"/><circle class="d" cx="48" cy="48" r="48" transform="translate(1147 629)"/></g><path class="b" d="M0,0H96a0,0,0,0,1,0,0V192a0,0,0,0,1,0,0H72A72,72,0,0,1,0,120V0A0,0,0,0,1,0,0Z" transform="translate(779 480)"/><circle class="c" cx="48" cy="48" r="48" transform="translate(683 384)"/><circle class="b" cx="48" cy="48" r="48" transform="translate(683 576)"/><path class="e" d="M0,0H96a0,0,0,0,1,0,0V24A72,72,0,0,1,24,96H0a0,0,0,0,1,0,0V0A0,0,0,0,1,0,0Z" transform="translate(779 480) rotate(90)"/><path class="d" d="M0,0H96a0,0,0,0,1,0,0V24A72,72,0,0,1,24,96H0a0,0,0,0,1,0,0V0A0,0,0,0,1,0,0Z" transform="translate(875 384) rotate(90)"/><g class="f" transform="translate(-271 -574)"><circle class="d" cx="96" cy="96" r="96" transform="translate(858 1054)"/></g><g transform="translate(-176 111)"><path class="e" d="M0,0H96a0,0,0,0,1,0,0V24A72,72,0,0,1,24,96H0a0,0,0,0,1,0,0V0A0,0,0,0,1,0,0Z" transform="translate(667 465) rotate(-90)"/><path class="d" d="M0,0H96a0,0,0,0,1,0,0V24A72,72,0,0,1,24,96H0a0,0,0,0,1,0,0V0A0,0,0,0,1,0,0Z" transform="translate(763 369) rotate(180)"/></g><g transform="translate(779 672) rotate(90)"><rect class="c" width="96" height="96"/><path class="e" d="M0,0H24A72,72,0,0,1,96,72V96a0,0,0,0,1,0,0H0a0,0,0,0,1,0,0V0A0,0,0,0,1,0,0Z" transform="translate(0 96)"/><path class="d" d="M0,0H24A72,72,0,0,1,96,72V96a0,0,0,0,1,0,0H0a0,0,0,0,1,0,0V0A0,0,0,0,1,0,0Z" transform="translate(96 288) rotate(180)"/></g></g></svg>