<svg id="svg" version="1.1" xmlns="http://www.w3.org/2000/svg" xmlns:xlink="http://www.w3.org/1999/xlink" width="400" height="1207.2072072072074" viewBox="0, 0, 400,1207.2072072072074"><g id="svgg"><path id="path0" d="M294.591 8.378 C 288.111 9.135,276.155 10.189,266.667 10.839 C 260.440 11.265,253.188 12.052,250.551 12.586 C 247.914 13.121,243.174 13.919,240.018 14.359 C 236.862 14.799,233.020 15.688,231.480 16.334 C 229.940 16.980,226.719 17.875,224.324 18.322 C 221.929 18.769,218.985 19.566,217.783 20.094 C 216.581 20.622,214.140 21.316,212.359 21.635 C 210.577 21.955,208.032 22.768,206.703 23.442 C 205.373 24.115,202.755 25.021,200.885 25.454 C 199.015 25.887,196.788 26.670,195.937 27.195 C 195.085 27.720,192.821 28.513,190.905 28.956 C 188.989 29.400,186.742 30.170,185.912 30.669 C 185.082 31.167,183.227 31.956,181.789 32.422 C 180.352 32.888,178.607 33.717,177.911 34.265 C 177.216 34.812,175.382 35.695,173.836 36.226 C 172.291 36.758,170.454 37.643,169.754 38.194 C 169.055 38.744,167.283 39.543,165.816 39.970 C 164.350 40.396,162.874 41.078,162.536 41.485 C 162.198 41.893,160.660 42.698,159.119 43.275 C 157.578 43.851,155.656 44.879,154.849 45.558 C 154.042 46.237,153.085 46.792,152.722 46.792 C 152.359 46.792,150.911 47.585,149.503 48.553 C 148.095 49.522,146.728 50.314,146.466 50.314 C 146.204 50.314,144.917 51.133,143.606 52.134 C 142.295 53.134,140.623 54.210,139.890 54.524 C 139.157 54.837,137.892 55.614,137.078 56.249 C 133.662 58.915,127.080 63.720,125.564 64.654 C 123.988 65.625,123.346 66.124,118.083 70.459 C 116.751 71.556,115.471 72.453,115.237 72.453 C 114.515 72.453,109.126 76.898,104.253 81.513 C 103.228 82.484,99.107 86.158,95.094 89.677 C 91.082 93.196,86.101 98.035,84.025 100.429 C 81.950 102.823,79.233 105.862,77.987 107.183 C 75.748 109.558,70.091 115.738,67.170 119.000 C 65.541 120.818,63.246 123.941,61.635 126.531 C 61.082 127.420,59.950 128.963,59.119 129.959 C 58.289 130.956,56.983 132.632,56.217 133.684 C 55.451 134.737,54.059 136.645,53.124 137.924 C 52.189 139.204,51.140 140.789,50.794 141.446 C 50.448 142.104,49.639 143.274,48.995 144.048 C 48.352 144.821,47.372 146.481,46.816 147.737 C 46.261 148.992,45.236 150.698,44.538 151.526 C 43.841 152.355,43.270 153.338,43.270 153.711 C 43.270 154.083,42.735 155.028,42.081 155.810 C 41.427 156.593,40.383 158.252,39.760 159.497 C 39.138 160.742,38.232 162.214,37.746 162.767 C 37.261 163.321,36.465 164.846,35.976 166.156 C 35.488 167.467,34.792 168.786,34.428 169.088 C 34.065 169.389,33.289 171.073,32.704 172.830 C 32.120 174.587,31.315 176.295,30.917 176.626 C 30.518 176.957,29.758 178.634,29.227 180.352 C 28.696 182.071,27.676 184.340,26.961 185.394 C 26.246 186.448,25.660 187.599,25.660 187.953 C 25.660 188.306,24.898 190.032,23.967 191.788 C 23.035 193.544,22.018 196.171,21.706 197.627 C 21.393 199.082,20.599 201.344,19.940 202.652 C 19.281 203.961,18.488 206.225,18.179 207.684 C 17.869 209.143,17.061 211.431,16.383 212.770 C 15.704 214.109,14.810 216.667,14.395 218.456 C 13.980 220.244,13.184 222.868,12.625 224.286 C 12.065 225.704,11.267 228.984,10.850 231.574 C 10.434 234.164,9.648 237.289,9.104 238.519 C 8.561 239.749,7.638 243.556,7.054 246.980 C 6.471 250.404,5.659 254.479,5.252 256.036 C 4.844 257.594,4.178 262.264,3.772 266.415 C 3.366 270.566,2.805 275.321,2.526 276.981 C 2.247 278.642,2.017 280.849,2.015 281.887 C 2.013 283.437,1.833 283.774,1.006 283.774 C 0.005 283.774,-0.000 284.109,-0.000 345.283 L -0.000 406.792 200.000 406.792 L 400.000 406.792 400.000 207.421 L 400.000 8.050 348.050 8.126 C 319.478 8.167,295.421 8.280,294.591 8.378 M397.571 537.233 C 397.247 539.377,396.633 544.528,396.207 548.679 C 395.782 552.830,394.896 558.491,394.237 561.258 C 393.579 564.025,392.793 568.071,392.492 570.250 C 392.190 572.428,391.483 575.249,390.922 576.518 C 390.360 577.788,389.564 580.873,389.153 583.375 C 388.741 585.877,387.854 589.396,387.182 591.195 C 386.509 592.994,385.619 595.963,385.203 597.794 C 384.788 599.625,384.005 601.889,383.464 602.825 C 382.923 603.762,382.115 605.981,381.669 607.758 C 381.223 609.534,380.427 611.685,379.901 612.537 C 379.375 613.390,378.674 615.220,378.345 616.604 C 377.766 619.034,376.422 622.159,372.275 630.711 C 371.197 632.936,370.314 635.000,370.314 635.298 C 370.314 635.595,369.853 636.426,369.288 637.144 C 368.724 637.861,367.827 639.712,367.296 641.258 C 366.764 642.803,365.880 644.638,365.331 645.336 C 364.783 646.033,364.067 647.439,363.742 648.459 C 363.416 649.480,362.631 650.881,361.999 651.572 C 361.366 652.264,360.477 653.733,360.023 654.836 C 359.569 655.939,358.766 657.301,358.239 657.862 C 357.712 658.423,356.943 659.689,356.531 660.676 C 356.119 661.663,355.392 662.792,354.916 663.185 C 354.440 663.578,353.548 665.031,352.933 666.415 C 352.319 667.799,351.336 669.362,350.751 669.889 C 350.165 670.416,349.686 671.135,349.686 671.486 C 349.686 671.837,349.063 672.859,348.302 673.758 C 346.679 675.676,344.035 679.375,342.775 681.493 C 342.286 682.314,341.311 683.559,340.607 684.260 C 339.904 684.961,338.810 686.384,338.176 687.421 C 337.543 688.459,336.853 689.308,336.643 689.308 C 336.433 689.308,335.674 690.387,334.956 691.705 C 334.239 693.023,333.071 694.647,332.360 695.315 C 331.650 695.982,331.069 696.815,331.069 697.166 C 331.069 697.517,330.626 698.115,330.085 698.494 C 329.543 698.874,326.198 702.452,322.652 706.447 C 319.105 710.442,315.361 714.616,314.331 715.723 C 313.301 716.830,312.457 717.866,312.455 718.024 C 312.454 718.183,310.019 720.445,307.044 723.050 C 304.069 725.656,300.806 728.582,299.793 729.554 C 296.249 732.953,290.244 738.319,289.152 739.063 C 288.546 739.476,287.869 740.110,287.648 740.473 C 287.427 740.835,286.521 741.499,285.635 741.947 C 283.752 742.900,280.413 745.261,277.812 747.479 C 276.802 748.340,275.239 749.422,274.340 749.881 C 273.440 750.341,272.704 750.917,272.704 751.160 C 272.704 751.403,271.516 752.275,270.063 753.098 C 268.610 753.921,266.990 755.074,266.463 755.662 C 265.936 756.249,265.208 756.730,264.845 756.730 C 264.483 756.730,263.442 757.382,262.533 758.180 C 261.624 758.978,259.978 760.008,258.875 760.468 C 257.772 760.929,256.392 761.754,255.809 762.302 C 254.789 763.260,253.562 763.983,247.547 767.164 C 246.025 767.969,243.899 769.234,242.823 769.974 C 241.747 770.715,240.588 771.321,240.249 771.321 C 239.910 771.321,239.035 771.791,238.305 772.365 C 237.574 772.940,235.584 773.956,233.881 774.623 C 232.178 775.290,230.409 776.177,229.949 776.593 C 229.489 777.010,227.785 777.807,226.164 778.365 C 224.542 778.923,222.844 779.715,222.390 780.126 C 221.936 780.536,220.293 781.310,218.738 781.845 C 217.182 782.380,215.274 783.283,214.496 783.851 C 213.718 784.420,211.610 785.192,209.811 785.568 C 208.013 785.944,205.622 786.724,204.498 787.301 C 203.375 787.878,201.022 788.722,199.270 789.176 C 197.519 789.630,195.042 790.542,193.766 791.204 C 192.490 791.865,190.019 792.633,188.274 792.909 C 186.530 793.186,183.700 793.968,181.985 794.646 C 180.271 795.325,177.226 796.130,175.219 796.436 C 173.212 796.741,170.129 797.533,168.369 798.196 C 166.608 798.858,162.589 799.796,159.439 800.279 C 156.288 800.761,152.465 801.584,150.943 802.106 C 149.421 802.628,145.233 803.391,141.635 803.801 C 138.038 804.211,133.849 804.804,132.327 805.118 L 129.560 805.689 132.075 806.480 C 135.850 807.666,400.000 807.981,400.000 806.799 C 400.000 806.122,385.712 806.030,270.314 805.964 C 167.509 805.906,142.245 805.770,148.428 805.308 C 156.117 804.735,158.491 804.144,158.491 802.804 C 158.491 801.975,159.444 801.723,165.283 801.004 C 168.379 800.623,170.464 800.065,171.873 799.241 C 173.285 798.415,175.346 797.864,178.414 797.494 C 181.310 797.145,183.752 796.515,185.323 795.713 C 186.660 795.030,189.195 794.242,190.956 793.960 C 194.891 793.332,195.697 793.055,197.001 791.887 C 197.569 791.378,199.799 790.628,201.991 790.208 C 204.431 789.742,206.368 789.063,207.027 788.444 C 207.674 787.836,209.571 787.159,211.820 786.734 C 214.452 786.236,215.801 785.712,216.422 784.945 C 216.928 784.319,218.539 783.537,220.223 783.098 C 221.830 782.680,223.711 781.811,224.403 781.167 C 225.094 780.523,226.853 779.719,228.310 779.380 C 229.796 779.034,231.254 778.343,231.631 777.805 C 232.000 777.277,233.525 776.488,235.019 776.050 C 236.513 775.612,238.302 774.730,238.994 774.089 C 239.686 773.448,241.229 772.635,242.424 772.284 C 243.619 771.932,245.015 771.112,245.527 770.461 C 246.039 769.811,247.600 768.940,248.996 768.525 C 250.392 768.110,251.847 767.325,252.229 766.780 C 252.610 766.235,253.694 765.531,254.637 765.216 C 255.581 764.901,256.918 764.122,257.610 763.486 C 258.302 762.850,259.927 761.876,261.222 761.323 C 262.517 760.770,263.813 759.876,264.102 759.336 C 264.391 758.796,265.195 758.212,265.889 758.038 C 266.583 757.864,267.891 757.077,268.796 756.289 C 269.700 755.501,271.119 754.507,271.950 754.080 C 272.780 753.653,273.967 752.716,274.588 751.998 C 275.209 751.279,276.038 750.692,276.430 750.692 C 276.822 750.692,277.673 750.063,278.320 749.295 C 278.967 748.526,280.201 747.607,281.061 747.251 C 281.921 746.895,283.449 745.826,284.458 744.874 C 285.466 743.923,286.614 743.145,287.009 743.145 C 287.403 743.145,288.252 742.514,288.894 741.743 C 289.537 740.972,290.661 740.041,291.391 739.675 C 292.121 739.309,292.966 738.468,293.267 737.806 C 293.568 737.145,294.103 736.604,294.455 736.604 C 294.806 736.604,295.774 735.942,296.604 735.133 C 299.414 732.393,302.771 729.318,305.436 727.044 C 309.805 723.316,312.002 721.325,313.138 720.064 C 313.730 719.407,314.893 718.136,315.723 717.238 C 316.553 716.341,318.252 714.399,319.497 712.923 C 320.742 711.447,322.723 709.145,323.899 707.807 C 325.075 706.470,326.038 705.193,326.038 704.970 C 326.038 704.747,326.598 704.309,327.282 703.997 C 327.966 703.686,328.672 702.849,328.850 702.138 C 329.029 701.427,329.795 700.524,330.554 700.132 C 331.313 699.740,332.216 698.736,332.562 697.902 C 332.907 697.068,333.594 696.257,334.088 696.101 C 334.582 695.944,335.277 695.112,335.634 694.252 C 335.990 693.393,337.038 691.872,337.963 690.873 C 338.889 689.874,339.780 688.541,339.944 687.911 C 340.107 687.281,340.687 686.527,341.233 686.236 C 341.778 685.944,342.544 684.939,342.935 684.003 C 343.326 683.067,344.097 682.059,344.648 681.764 C 345.199 681.469,346.023 680.499,346.478 679.608 C 346.934 678.717,348.069 677.138,348.999 676.099 C 349.930 675.061,350.692 673.764,350.692 673.218 C 350.692 672.671,351.246 671.861,351.924 671.417 C 352.602 670.973,353.412 669.836,353.724 668.891 C 354.036 667.946,355.066 666.245,356.013 665.111 C 356.961 663.977,357.736 662.652,357.736 662.165 C 357.736 661.679,358.401 660.585,359.214 659.735 C 360.027 658.884,360.967 657.269,361.304 656.145 C 361.641 655.022,362.438 653.760,363.077 653.342 C 363.715 652.924,364.478 651.685,364.773 650.590 C 365.068 649.495,365.839 647.966,366.486 647.193 C 367.133 646.419,368.028 644.524,368.474 642.982 C 368.920 641.439,369.735 639.770,370.285 639.272 C 370.835 638.774,371.654 637.093,372.105 635.536 C 372.556 633.978,373.351 632.304,373.872 631.815 C 374.393 631.326,375.192 629.628,375.648 628.041 C 376.103 626.455,376.892 624.760,377.401 624.275 C 378.306 623.412,378.962 621.468,379.585 617.805 C 379.755 616.805,380.333 615.590,380.869 615.105 C 381.455 614.575,382.183 612.689,382.692 610.382 C 383.186 608.145,384.015 605.971,384.677 605.177 C 385.424 604.281,386.020 602.552,386.413 600.145 C 386.775 597.933,387.485 595.779,388.204 594.717 C 389.097 593.398,389.531 591.756,389.935 588.176 C 390.302 584.915,390.861 582.652,391.694 581.054 C 392.477 579.552,393.113 577.114,393.465 574.261 C 394.151 568.701,394.394 567.726,395.599 565.684 C 396.415 564.301,397.752 552.828,397.976 545.283 C 397.982 545.075,398.440 544.906,398.994 544.906 C 399.942 544.906,400.000 544.570,400.000 539.119 C 400.000 533.851,399.918 533.333,399.081 533.333 C 398.320 533.333,398.060 534.007,397.571 537.233 M-0.000 1205.969 L 0.000 1207.547 200.000 1207.547 L 400.000 1207.547 400.000 1206.289 L 400.000 1205.031 202.334 1205.031 C 93.618 1205.031,3.618 1204.887,2.334 1204.711 L -0.000 1204.392 -0.000 1205.969 " stroke="none" fill="#a4e4d4" fill-rule="evenodd"></path><path id="path1" d="M1.384 408.411 L -0.000 408.620 -0.000 606.323 L 0.000 804.025 1.132 804.043 C 1.755 804.053,2.830 804.384,3.522 804.780 C 5.040 805.648,97.863 805.885,107.421 805.045 C 110.465 804.778,117.371 804.321,122.767 804.031 C 140.372 803.085,144.419 802.653,147.934 801.345 C 150.108 800.535,153.277 799.937,157.441 799.550 C 160.877 799.230,164.273 798.647,164.989 798.253 C 167.672 796.775,168.695 796.479,173.678 795.734 C 176.488 795.313,179.145 794.664,179.583 794.291 C 180.768 793.278,181.952 792.933,186.755 792.199 C 189.682 791.752,191.619 791.163,192.636 790.411 C 193.492 789.779,195.740 788.990,197.798 788.601 C 199.804 788.222,201.799 787.604,202.232 787.228 C 203.690 785.961,205.188 785.418,208.523 784.946 C 210.887 784.611,212.287 784.103,213.382 783.181 C 214.228 782.469,215.526 781.752,216.265 781.588 C 218.928 780.998,219.398 780.793,220.807 779.608 C 221.593 778.946,223.191 778.190,224.358 777.928 C 225.524 777.666,227.323 776.866,228.355 776.151 C 229.387 775.436,231.374 774.511,232.769 774.097 C 234.165 773.682,235.710 772.898,236.203 772.353 C 236.696 771.808,238.172 771.006,239.484 770.570 C 240.795 770.135,242.382 769.232,243.010 768.563 C 243.638 767.895,244.859 767.194,245.724 767.006 C 246.588 766.818,248.028 766.024,248.922 765.242 C 249.817 764.459,251.472 763.543,252.600 763.205 C 253.728 762.867,254.876 762.169,255.152 761.654 C 255.427 761.139,256.829 760.197,258.267 759.560 C 259.704 758.923,261.182 758.037,261.550 757.591 C 261.918 757.146,262.995 756.525,263.943 756.212 C 264.892 755.899,265.900 755.209,266.184 754.678 C 266.468 754.148,267.542 753.282,268.570 752.755 C 269.599 752.228,270.983 751.215,271.646 750.504 C 272.310 749.793,273.601 748.965,274.515 748.663 C 275.430 748.361,276.305 747.716,276.459 747.229 C 276.613 746.743,277.579 745.945,278.605 745.456 C 279.631 744.966,280.776 744.129,281.150 743.595 C 281.525 743.060,282.947 742.057,284.312 741.366 C 285.676 740.675,286.792 739.892,286.792 739.627 C 286.792 739.362,287.512 738.773,288.392 738.318 C 289.271 737.864,290.728 736.782,291.628 735.916 C 292.529 735.049,293.711 733.921,294.255 733.409 C 294.800 732.897,295.510 732.218,295.833 731.899 C 296.576 731.168,299.702 728.284,304.640 723.774 C 309.126 719.676,311.333 717.471,314.465 713.961 C 315.711 712.565,318.258 709.857,320.126 707.944 C 321.994 706.030,323.522 704.241,323.522 703.967 C 323.522 703.693,324.145 702.992,324.906 702.408 C 325.667 701.824,326.643 700.732,327.074 699.981 C 327.506 699.231,328.324 698.406,328.893 698.149 C 329.461 697.892,330.195 696.937,330.524 696.026 C 330.854 695.115,331.649 693.957,332.292 693.451 C 332.934 692.946,333.931 691.608,334.507 690.479 C 335.083 689.350,335.894 688.296,336.308 688.137 C 336.722 687.978,337.506 686.988,338.049 685.936 C 338.592 684.885,339.507 683.740,340.084 683.392 C 340.660 683.044,341.132 682.422,341.132 682.010 C 341.132 681.598,341.894 680.411,342.825 679.373 C 343.755 678.334,344.890 676.755,345.345 675.864 C 345.801 674.973,346.606 674.012,347.135 673.729 C 347.663 673.447,348.349 672.448,348.658 671.511 C 348.967 670.574,349.644 669.424,350.161 668.956 C 350.679 668.487,351.583 666.986,352.171 665.618 C 352.760 664.251,353.692 662.852,354.243 662.510 C 354.795 662.167,355.482 661.012,355.771 659.942 C 356.060 658.873,356.857 657.437,357.541 656.753 C 358.226 656.068,359.143 654.616,359.579 653.526 C 360.015 652.437,360.762 651.268,361.240 650.930 C 361.717 650.591,362.510 649.099,363.001 647.612 C 363.493 646.126,364.311 644.494,364.821 643.984 C 365.330 643.475,366.100 641.841,366.533 640.353 C 366.966 638.865,367.891 636.875,368.588 635.931 C 369.286 634.986,370.101 633.248,370.399 632.067 C 370.697 630.886,371.563 629.138,372.322 628.182 C 373.082 627.226,373.846 625.550,374.021 624.456 C 374.196 623.363,374.906 621.794,375.599 620.971 C 376.433 619.980,377.088 618.256,377.540 615.870 C 377.932 613.792,378.712 611.602,379.379 610.699 C 380.016 609.838,380.845 607.644,381.222 605.824 C 381.599 604.005,382.338 601.926,382.864 601.205 C 383.896 599.793,384.623 597.363,385.139 593.609 C 385.317 592.307,386.003 590.227,386.663 588.987 C 387.492 587.427,388.031 585.213,388.410 581.813 C 388.814 578.195,389.288 576.334,390.205 574.770 C 391.161 573.139,391.570 571.436,391.963 567.454 C 392.586 561.149,393.343 557.179,394.268 555.378 C 394.699 554.537,395.243 550.070,395.707 543.554 C 396.979 525.701,397.971 518.239,399.070 518.239 C 399.969 518.239,400.000 516.388,400.000 463.145 L 400.000 408.050 201.384 408.126 C 92.145 408.167,2.145 408.295,1.384 408.411 " stroke="none" fill="#24a49c" fill-rule="evenodd"></path><path id="path2" d="M0.000 141.887 C 0.000 283.438,0.002 283.774,1.006 283.774 C 1.833 283.774,2.013 283.437,2.015 281.887 C 2.017 280.849,2.247 278.642,2.526 276.981 C 2.805 275.321,3.366 270.566,3.772 266.415 C 4.178 262.264,4.844 257.594,5.252 256.036 C 5.659 254.479,6.471 250.404,7.054 246.980 C 7.638 243.556,8.561 239.749,9.104 238.519 C 9.648 237.289,10.434 234.164,10.850 231.574 C 11.267 228.984,12.065 225.704,12.625 224.286 C 13.184 222.868,13.980 220.244,14.395 218.456 C 14.810 216.667,15.704 214.109,16.383 212.770 C 17.061 211.431,17.869 209.143,18.179 207.684 C 18.488 206.225,19.281 203.961,19.940 202.652 C 20.599 201.344,21.393 199.082,21.706 197.627 C 22.018 196.171,23.035 193.544,23.967 191.788 C 24.898 190.032,25.660 188.306,25.660 187.953 C 25.660 187.599,26.246 186.448,26.961 185.394 C 27.676 184.340,28.696 182.071,29.227 180.352 C 29.758 178.634,30.518 176.957,30.917 176.626 C 31.315 176.295,32.120 174.587,32.704 172.830 C 33.289 171.073,34.065 169.389,34.428 169.088 C 34.792 168.786,35.488 167.467,35.976 166.156 C 36.465 164.846,37.261 163.321,37.746 162.767 C 38.232 162.214,39.138 160.742,39.760 159.497 C 40.383 158.252,41.427 156.593,42.081 155.810 C 42.735 155.028,43.270 154.083,43.270 153.711 C 43.270 153.338,43.841 152.355,44.538 151.526 C 45.236 150.698,46.261 148.992,46.816 147.737 C 47.372 146.481,48.352 144.821,48.995 144.048 C 49.639 143.274,50.448 142.104,50.794 141.446 C 51.140 140.789,52.189 139.204,53.124 137.924 C 54.059 136.645,55.451 134.737,56.217 133.684 C 56.983 132.632,58.289 130.956,59.119 129.959 C 59.950 128.963,61.082 127.420,61.635 126.531 C 63.246 123.941,65.541 120.818,67.170 119.000 C 70.091 115.738,75.748 109.558,77.987 107.183 C 79.233 105.862,81.950 102.823,84.025 100.429 C 86.101 98.035,91.082 93.196,95.094 89.677 C 99.107 86.158,103.228 82.484,104.253 81.513 C 109.126 76.898,114.515 72.453,115.237 72.453 C 115.471 72.453,116.751 71.556,118.083 70.459 C 123.346 66.124,123.988 65.625,125.564 64.654 C 127.080 63.720,133.662 58.915,137.078 56.249 C 137.892 55.614,139.157 54.837,139.890 54.524 C 140.623 54.210,142.295 53.134,143.606 52.134 C 144.917 51.133,146.204 50.314,146.466 50.314 C 146.728 50.314,148.095 49.522,149.503 48.553 C 150.911 47.585,152.359 46.792,152.722 46.792 C 153.085 46.792,154.042 46.237,154.849 45.558 C 155.656 44.879,157.578 43.851,159.119 43.275 C 160.660 42.698,162.198 41.893,162.536 41.485 C 162.874 41.078,164.350 40.396,165.816 39.970 C 167.283 39.543,169.055 38.744,169.754 38.194 C 170.454 37.643,172.291 36.758,173.836 36.226 C 175.382 35.695,177.216 34.812,177.911 34.265 C 178.607 33.717,180.352 32.888,181.789 32.422 C 183.227 31.956,185.082 31.167,185.912 30.669 C 186.742 30.170,188.989 29.400,190.905 28.956 C 192.821 28.513,195.085 27.720,195.937 27.195 C 196.788 26.670,199.015 25.887,200.885 25.454 C 202.755 25.021,205.373 24.115,206.703 23.442 C 208.032 22.768,210.577 21.955,212.359 21.635 C 214.140 21.316,216.581 20.622,217.783 20.094 C 218.985 19.566,221.929 18.769,224.324 18.322 C 226.719 17.875,229.940 16.980,231.480 16.334 C 233.020 15.688,236.862 14.799,240.018 14.359 C 243.174 13.919,247.914 13.121,250.551 12.586 C 253.190 12.051,261.907 11.142,269.937 10.566 C 277.962 9.990,285.887 9.271,287.547 8.968 C 289.562 8.601,308.769 8.349,345.283 8.210 L 400.000 8.001 400.000 4.000 L 400.000 0.000 200.000 0.000 L 0.000 0.000 0.000 141.887 M397.976 545.283 C 397.752 552.828,396.415 564.301,395.599 565.684 C 394.394 567.726,394.151 568.701,393.465 574.261 C 393.113 577.114,392.477 579.552,391.694 581.054 C 390.861 582.652,390.302 584.915,389.935 588.176 C 389.531 591.756,389.097 593.398,388.204 594.717 C 387.485 595.779,386.775 597.933,386.413 600.145 C 386.020 602.552,385.424 604.281,384.677 605.177 C 384.015 605.971,383.186 608.145,382.692 610.382 C 382.183 612.689,381.455 614.575,380.869 615.105 C 380.333 615.590,379.755 616.805,379.585 617.805 C 378.962 621.468,378.306 623.412,377.401 624.275 C 376.892 624.760,376.103 626.455,375.648 628.041 C 375.192 629.628,374.393 631.326,373.872 631.815 C 373.351 632.304,372.556 633.978,372.105 635.536 C 371.654 637.093,370.835 638.774,370.285 639.272 C 369.735 639.770,368.920 641.439,368.474 642.982 C 368.028 644.524,367.133 646.419,366.486 647.193 C 365.839 647.966,365.068 649.495,364.773 650.590 C 364.478 651.685,363.715 652.924,363.077 653.342 C 362.438 653.760,361.641 655.022,361.304 656.145 C 360.967 657.269,360.027 658.884,359.214 659.735 C 358.401 660.585,357.736 661.679,357.736 662.165 C 357.736 662.652,356.961 663.977,356.013 665.111 C 355.066 666.245,354.036 667.946,353.724 668.891 C 353.412 669.836,352.602 670.973,351.924 671.417 C 351.246 671.861,350.692 672.671,350.692 673.218 C 350.692 673.764,349.930 675.061,348.999 676.099 C 348.069 677.138,346.934 678.717,346.478 679.608 C 346.023 680.499,345.199 681.469,344.648 681.764 C 344.097 682.059,343.326 683.067,342.935 684.003 C 342.544 684.939,341.778 685.944,341.233 686.236 C 340.687 686.527,340.107 687.281,339.944 687.911 C 339.780 688.541,338.889 689.874,337.963 690.873 C 337.038 691.872,335.990 693.393,335.634 694.252 C 335.277 695.112,334.582 695.944,334.088 696.101 C 333.594 696.257,332.907 697.068,332.562 697.902 C 332.216 698.736,331.313 699.740,330.554 700.132 C 329.795 700.524,329.029 701.427,328.850 702.138 C 328.672 702.849,327.966 703.686,327.282 703.997 C 326.598 704.309,326.038 704.747,326.038 704.970 C 326.038 705.193,325.075 706.470,323.899 707.807 C 322.723 709.145,320.742 711.447,319.497 712.923 C 318.252 714.399,316.553 716.341,315.723 717.238 C 314.893 718.136,313.730 719.407,313.138 720.064 C 312.002 721.325,309.805 723.316,305.436 727.044 C 302.771 729.318,299.414 732.393,296.604 735.133 C 295.774 735.942,294.806 736.604,294.455 736.604 C 294.103 736.604,293.568 737.145,293.267 737.806 C 292.966 738.468,292.121 739.309,291.391 739.675 C 290.661 740.041,289.537 740.972,288.894 741.743 C 288.252 742.514,287.403 743.145,287.009 743.145 C 286.614 743.145,285.466 743.923,284.458 744.874 C 283.449 745.826,281.921 746.895,281.061 747.251 C 280.201 747.607,278.967 748.526,278.320 749.295 C 277.673 750.063,276.822 750.692,276.430 750.692 C 276.038 750.692,275.209 751.279,274.588 751.998 C 273.967 752.716,272.780 753.653,271.950 754.080 C 271.119 754.507,269.700 755.501,268.796 756.289 C 267.891 757.077,266.583 757.864,265.889 758.038 C 265.195 758.212,264.391 758.796,264.102 759.336 C 263.813 759.876,262.517 760.770,261.222 761.323 C 259.927 761.876,258.302 762.850,257.610 763.486 C 256.918 764.122,255.581 764.901,254.637 765.216 C 253.694 765.531,252.610 766.235,252.229 766.780 C 251.847 767.325,250.392 768.110,248.996 768.525 C 247.600 768.940,246.039 769.811,245.527 770.461 C 245.015 771.112,243.619 771.932,242.424 772.284 C 241.229 772.635,239.686 773.448,238.994 774.089 C 238.302 774.730,236.513 775.612,235.019 776.050 C 233.525 776.488,232.000 777.277,231.631 777.805 C 231.254 778.343,229.796 779.034,228.310 779.380 C 226.853 779.719,225.094 780.523,224.403 781.167 C 223.711 781.811,221.830 782.680,220.223 783.098 C 218.539 783.537,216.928 784.319,216.422 784.945 C 215.801 785.712,214.452 786.236,211.820 786.734 C 209.571 787.159,207.674 787.836,207.027 788.444 C 206.368 789.063,204.431 789.742,201.991 790.208 C 199.799 790.628,197.569 791.378,197.001 791.887 C 195.697 793.055,194.891 793.332,190.956 793.960 C 189.195 794.242,186.660 795.030,185.323 795.713 C 183.752 796.515,181.310 797.145,178.414 797.494 C 175.346 797.864,173.285 798.415,171.873 799.241 C 170.464 800.065,168.379 800.623,165.283 801.004 C 159.444 801.723,158.491 801.975,158.491 802.804 C 158.491 804.144,156.117 804.735,148.428 805.308 C 142.245 805.770,167.509 805.906,270.314 805.964 L 400.000 806.038 400.000 675.472 C 400.000 545.241,399.997 544.906,398.994 544.906 C 398.440 544.906,397.982 545.075,397.976 545.283 " stroke="none" fill="transparent" fill-rule="evenodd"></path><path id="path3" d="M102.305 407.925 C 157.051 407.995,246.485 407.995,301.047 407.925 C 355.610 407.854,310.818 407.796,201.509 407.796 C 92.201 407.796,47.559 407.854,102.305 407.925 M397.310 525.409 C 396.849 529.352,396.500 533.371,396.534 534.340 C 396.582 535.750,397.855 527.779,397.960 525.409 C 397.975 525.063,398.440 524.780,398.994 524.780 C 399.897 524.780,400.000 524.444,400.000 521.509 C 400.000 518.668,399.878 518.239,399.073 518.239 C 398.255 518.239,398.048 519.082,397.310 525.409 M396.119 538.616 C 396.123 540.000,396.220 540.506,396.336 539.742 C 396.452 538.977,396.448 537.845,396.329 537.226 C 396.210 536.607,396.115 537.233,396.119 538.616 M395.609 545.409 C 395.609 546.654,395.707 547.164,395.827 546.541 C 395.947 545.918,395.947 544.899,395.827 544.277 C 395.707 543.654,395.609 544.164,395.609 545.409 M394.042 555.833 C 393.272 557.762,392.472 561.503,392.505 563.019 C 392.520 563.711,392.851 562.805,393.240 561.006 C 393.629 559.208,394.208 557.106,394.526 556.336 C 394.844 555.566,394.991 554.823,394.852 554.685 C 394.714 554.546,394.349 555.063,394.042 555.833 M392.066 566.541 C 392.066 567.509,392.170 567.906,392.297 567.421 C 392.423 566.937,392.423 566.145,392.297 565.660 C 392.170 565.176,392.066 565.572,392.066 566.541 M390.027 575.043 C 389.424 576.115,388.950 577.414,388.974 577.930 C 389.004 578.589,389.135 578.481,389.412 577.567 C 389.629 576.851,390.206 575.655,390.694 574.909 C 391.183 574.164,391.479 573.450,391.353 573.323 C 391.226 573.197,390.629 573.970,390.027 575.043 M386.473 589.315 C 385.888 590.524,385.411 591.837,385.414 592.234 C 385.416 592.631,385.987 591.734,386.682 590.241 C 387.377 588.748,387.854 587.435,387.741 587.322 C 387.629 587.209,387.058 588.106,386.473 589.315 M382.585 601.525 C 382.126 602.226,381.842 602.890,381.954 603.002 C 382.066 603.114,382.539 602.541,383.005 601.729 C 384.043 599.919,383.735 599.770,382.585 601.525 M378.897 611.390 C 378.330 612.320,377.879 613.421,377.895 613.836 C 377.912 614.252,378.149 614.030,378.423 613.344 C 378.697 612.658,379.285 611.694,379.730 611.202 C 380.175 610.711,380.402 610.171,380.234 610.003 C 380.066 609.835,379.464 610.459,378.897 611.390 M375.382 621.200 C 374.809 621.929,374.347 622.778,374.355 623.087 C 374.363 623.395,374.621 623.195,374.928 622.642 C 375.236 622.088,375.830 621.239,376.249 620.755 C 376.668 620.270,376.879 619.874,376.718 619.874 C 376.557 619.874,375.956 620.471,375.382 621.200 M371.860 628.747 C 371.287 629.476,370.818 630.313,370.818 630.606 C 370.818 630.899,371.384 630.372,372.075 629.434 C 372.767 628.496,373.333 627.660,373.333 627.575 C 373.333 627.132,372.793 627.562,371.860 628.747 M368.800 635.593 C 367.329 637.807,367.215 638.216,368.485 636.730 C 369.606 635.418,370.109 634.465,369.681 634.465 C 369.609 634.465,369.213 634.973,368.800 635.593 M356.724 657.736 C 356.176 658.635,355.735 659.597,355.745 659.874 C 355.755 660.151,356.118 659.698,356.552 658.868 C 356.986 658.038,357.699 657.075,358.138 656.730 C 358.626 656.344,358.700 656.101,358.328 656.101 C 357.994 656.101,357.272 656.836,356.724 657.736 M353.456 663.148 C 352.170 664.569,352.718 664.701,354.070 663.296 C 354.683 662.659,355.001 662.138,354.777 662.138 C 354.553 662.138,353.959 662.593,353.456 663.148 M351.698 666.544 C 351.698 666.846,351.083 667.846,350.332 668.766 C 349.209 670.143,349.173 670.262,350.127 669.440 C 351.483 668.271,352.408 666.706,351.990 666.288 C 351.830 666.127,351.698 666.243,351.698 666.544 M342.694 679.514 C 341.835 680.493,341.139 681.568,341.147 681.904 C 341.156 682.241,341.413 682.063,341.718 681.509 C 342.023 680.956,342.851 679.881,343.558 679.119 C 344.264 678.358,344.710 677.736,344.549 677.736 C 344.387 677.736,343.552 678.536,342.694 679.514 M331.978 693.711 C 330.424 695.520,330.423 696.048,331.976 694.593 C 332.861 693.764,333.585 693.028,333.585 692.958 C 333.585 692.515,332.615 692.970,331.978 693.711 M327.796 698.871 C 326.510 700.292,327.057 700.424,328.410 699.019 C 329.022 698.383,329.341 697.862,329.117 697.862 C 328.893 697.862,328.298 698.316,327.796 698.871 M319.507 708.302 C 316.693 711.297,315.763 712.694,317.916 710.692 C 319.442 709.273,322.249 705.912,321.908 705.912 C 321.822 705.912,320.742 706.987,319.507 708.302 M314.717 713.755 L 313.208 715.052 314.843 713.970 C 315.742 713.374,316.478 712.790,316.478 712.670 C 316.478 712.294,316.265 712.425,314.717 713.755 M310.430 718.251 C 309.458 719.423,310.152 719.643,311.192 718.494 C 311.695 717.938,311.872 717.484,311.586 717.484 C 311.300 717.484,310.780 717.829,310.430 718.251 M307.664 720.892 C 307.105 721.370,306.206 722.327,305.664 723.019 C 305.123 723.711,305.636 723.382,306.805 722.288 C 308.729 720.487,309.177 719.978,308.805 720.011 C 308.736 720.017,308.222 720.414,307.664 720.892 M300.279 727.572 C 299.810 727.846,298.941 728.801,298.348 729.695 L 297.271 731.321 298.358 730.063 C 298.955 729.371,299.937 728.414,300.540 727.936 C 301.745 726.979,301.612 726.795,300.279 727.572 M284.528 741.214 C 282.112 742.467,280.749 743.606,280.770 744.355 C 280.778 744.658,281.018 744.507,281.301 744.019 C 281.585 743.532,282.937 742.566,284.305 741.872 C 285.673 741.179,286.792 740.503,286.792 740.369 C 286.792 740.038,286.805 740.033,284.528 741.214 M272.045 750.314 C 271.137 751.214,270.970 751.471,271.675 750.885 C 272.379 750.299,273.409 749.570,273.962 749.265 C 274.516 748.960,274.682 748.703,274.332 748.695 C 273.982 748.686,272.953 749.415,272.045 750.314 M260.978 758.003 C 260.202 758.686,259.766 759.245,260.010 759.245 C 260.254 759.245,260.985 758.679,261.635 757.987 C 263.139 756.387,262.807 756.395,260.978 758.003 M256.031 760.785 L 254.843 761.821 256.352 760.937 C 258.339 759.774,258.368 759.748,257.750 759.748 C 257.457 759.748,256.684 760.215,256.031 760.785 M249.166 765.157 C 247.963 766.333,247.943 766.391,249.032 765.542 C 251.180 763.869,251.282 763.774,250.926 763.774 C 250.737 763.774,249.945 764.396,249.166 765.157 M242.981 768.679 L 241.761 770.063 243.270 768.805 C 244.101 768.113,244.874 767.491,244.990 767.421 C 245.105 767.352,244.974 767.296,244.700 767.296 C 244.425 767.296,243.652 767.918,242.981 768.679 M236.632 772.060 C 235.855 772.743,235.503 773.309,235.849 773.317 C 236.195 773.326,236.478 773.114,236.478 772.846 C 236.478 772.578,237.101 772.021,237.862 771.609 C 238.623 771.196,238.975 770.849,238.644 770.838 C 238.314 770.827,237.408 771.376,236.632 772.060 M228.428 776.101 C 227.490 776.792,226.981 777.358,227.296 777.358 C 227.866 777.358,230.945 774.889,230.412 774.859 C 230.258 774.850,229.365 775.409,228.428 776.101 M220.727 779.639 C 218.876 781.267,219.538 781.253,221.475 779.623 C 222.298 778.931,222.783 778.372,222.554 778.381 C 222.326 778.389,221.503 778.955,220.727 779.639 M203.396 786.410 C 201.124 787.795,201.337 788.133,203.648 786.810 C 205.972 785.480,206.066 785.408,205.493 785.411 C 205.239 785.412,204.296 785.861,203.396 786.410 M193.277 789.966 C 192.346 790.533,191.722 791.135,191.890 791.303 C 192.058 791.471,192.597 791.244,193.089 790.799 C 193.581 790.354,194.544 789.766,195.230 789.492 C 195.917 789.219,196.138 788.981,195.723 788.965 C 195.308 788.948,194.207 789.399,193.277 789.966 M181.783 793.120 C 180.007 793.770,178.522 794.969,179.492 794.969 C 179.808 794.969,180.204 794.746,180.372 794.473 C 180.541 794.201,181.743 793.651,183.044 793.251 C 184.344 792.850,184.956 792.524,184.403 792.526 C 183.849 792.528,182.670 792.795,181.783 793.120 M167.221 796.978 C 166.627 797.218,165.979 797.675,165.782 797.994 C 165.562 798.351,165.977 798.294,166.863 797.846 C 167.654 797.446,168.642 796.993,169.057 796.838 C 169.727 796.589,169.727 796.557,169.057 796.550 C 168.642 796.545,167.816 796.738,167.221 796.978 M156.101 799.844 C 156.585 799.970,157.377 799.970,157.862 799.844 C 158.346 799.717,157.950 799.614,156.981 799.614 C 156.013 799.614,155.616 799.717,156.101 799.844 M148.176 801.248 C 146.516 801.906,145.426 802.461,145.753 802.480 C 146.081 802.500,146.987 802.258,147.766 801.943 C 148.545 801.628,150.314 801.082,151.698 800.728 C 153.664 800.226,153.884 800.082,152.704 800.069 C 151.874 800.059,149.836 800.590,148.176 801.248 M136.235 803.384 C 137.140 803.495,138.498 803.493,139.254 803.378 C 140.010 803.264,139.270 803.172,137.610 803.175 C 135.950 803.178,135.331 803.272,136.235 803.384 M121.509 804.076 C 117.358 804.299,111.184 804.719,107.789 805.008 C 97.509 805.885,5.100 805.682,3.522 804.780 C 1.845 803.821,0.000 803.821,0.000 804.780 C 0.000 805.202,0.449 805.535,1.019 805.535 C 3.363 805.535,3.256 797.012,3.522 1005.283 L 3.774 1202.264 199.245 1202.411 C 306.755 1202.492,395.906 1202.419,397.358 1202.249 L 400.000 1201.940 400.000 1005.498 L 400.000 809.057 269.057 809.062 C 128.204 809.069,121.680 808.961,114.214 806.507 C 112.692 806.007,111.786 805.583,112.201 805.565 C 116.162 805.395,133.597 803.929,133.774 803.752 C 134.053 803.473,131.409 803.543,121.509 804.076 " stroke="none" fill="#73c38c" fill-rule="evenodd"></path><path id="path4" d="M2.138 406.909 C 0.962 407.015,0.000 407.346,0.000 407.644 C 0.000 408.001,0.803 408.077,2.334 407.867 C 3.618 407.691,93.675 407.521,202.460 407.489 C 311.245 407.457,399.346 407.244,398.239 407.015 C 396.311 406.616,6.546 406.512,2.138 406.909 M397.987 525.075 C 397.987 525.238,397.656 528.124,397.251 531.490 C 396.846 534.856,396.170 541.636,395.750 546.557 C 395.330 551.478,394.786 555.893,394.541 556.369 C 393.819 557.768,392.992 561.871,392.198 567.983 C 391.729 571.597,391.104 574.283,390.499 575.279 C 389.419 577.058,389.122 578.275,388.451 583.652 C 388.192 585.730,387.417 588.673,386.728 590.193 C 386.040 591.713,385.216 594.428,384.898 596.226 C 384.580 598.025,383.862 600.240,383.303 601.149 C 382.744 602.058,381.864 604.491,381.348 606.556 C 380.832 608.621,379.960 610.934,379.411 611.696 C 378.861 612.458,378.059 614.634,377.628 616.531 C 377.198 618.428,376.406 620.538,375.869 621.220 C 375.333 621.903,374.546 623.655,374.122 625.114 C 373.698 626.572,372.902 628.337,372.353 629.035 C 371.804 629.733,370.982 631.402,370.527 632.744 C 370.071 634.086,369.191 635.871,368.571 636.711 C 367.952 637.552,367.156 639.313,366.802 640.626 C 366.449 641.938,365.660 643.595,365.048 644.306 C 364.437 645.018,363.556 646.808,363.090 648.285 C 362.625 649.761,361.898 651.102,361.474 651.265 C 361.051 651.427,360.232 652.695,359.656 654.082 C 359.080 655.469,358.399 656.604,358.144 656.604 C 357.889 656.604,357.090 657.906,356.369 659.497 C 355.648 661.088,354.731 662.584,354.333 662.821 C 353.934 663.058,353.089 664.426,352.454 665.860 C 351.820 667.294,350.918 668.786,350.450 669.174 C 349.982 669.562,349.255 670.742,348.833 671.795 C 348.412 672.849,347.862 673.711,347.612 673.711 C 347.362 673.711,346.359 674.899,345.384 676.352 C 344.408 677.805,343.077 679.786,342.425 680.755 C 341.774 681.723,340.685 683.082,340.005 683.774 C 339.326 684.465,338.404 685.740,337.957 686.606 C 337.510 687.472,336.805 688.310,336.391 688.469 C 335.977 688.628,335.074 689.844,334.384 691.171 C 333.695 692.499,332.553 694.118,331.848 694.770 C 331.143 695.421,330.566 696.198,330.566 696.495 C 330.566 696.792,329.830 697.769,328.931 698.665 C 328.031 699.561,326.503 701.195,325.535 702.297 C 321.837 706.505,316.670 712.173,315.248 713.583 C 314.433 714.391,313.188 715.813,312.481 716.742 C 311.773 717.671,308.586 720.765,305.398 723.618 C 298.736 729.580,298.331 729.951,293.566 734.490 C 291.618 736.344,289.404 738.143,288.646 738.486 C 287.888 738.830,287.132 739.463,286.967 739.893 C 286.802 740.324,285.620 741.220,284.340 741.886 C 283.060 742.551,281.479 743.673,280.828 744.378 C 280.176 745.083,279.411 745.660,279.128 745.660 C 278.844 745.660,277.758 746.396,276.714 747.296 C 274.796 748.947,272.679 750.445,269.966 752.069 C 269.152 752.557,267.702 753.692,266.744 754.591 C 265.786 755.491,264.715 756.226,264.364 756.226 C 264.013 756.226,262.999 756.837,262.112 757.583 C 261.225 758.330,259.393 759.453,258.040 760.080 C 256.687 760.707,255.451 761.557,255.293 761.969 C 255.135 762.381,254.176 762.981,253.163 763.301 C 252.150 763.621,250.528 764.502,249.560 765.259 C 248.591 766.015,246.968 766.908,245.952 767.242 C 244.937 767.577,243.805 768.213,243.436 768.657 C 243.068 769.100,241.352 770.098,239.623 770.874 C 237.893 771.650,236.478 772.485,236.478 772.729 C 236.478 772.974,235.123 773.584,233.467 774.086 C 231.811 774.587,230.076 775.418,229.611 775.932 C 229.146 776.446,227.280 777.325,225.464 777.886 C 223.649 778.446,221.705 779.328,221.145 779.846 C 220.584 780.363,218.895 781.147,217.390 781.589 C 215.885 782.030,214.168 782.848,213.574 783.406 C 212.929 784.012,211.051 784.696,208.915 785.103 C 206.947 785.478,204.362 786.345,203.172 787.030 C 201.981 787.715,199.648 788.538,197.987 788.859 C 196.327 789.180,194.403 789.852,193.711 790.353 C 191.966 791.615,191.065 791.900,186.992 792.478 C 185.037 792.755,182.292 793.524,180.891 794.187 C 179.490 794.850,176.424 795.651,174.077 795.967 C 171.731 796.283,168.592 797.095,167.103 797.771 C 165.267 798.603,162.368 799.249,158.107 799.774 C 154.649 800.201,150.547 800.975,148.992 801.496 C 145.297 802.732,144.240 802.918,137.358 803.544 C 131.187 804.107,114.130 805.484,112.453 805.555 C 108.373 805.729,118.535 807.538,127.547 808.242 C 142.875 809.440,400.000 809.502,400.000 808.308 C 400.000 807.648,384.346 807.543,267.296 807.415 C 148.307 807.286,134.331 807.189,132.075 806.480 L 129.560 805.689 132.327 805.118 C 133.849 804.804,138.038 804.211,141.635 803.801 C 145.233 803.391,149.421 802.628,150.943 802.106 C 152.465 801.584,156.288 800.761,159.439 800.279 C 162.589 799.796,166.608 798.858,168.369 798.196 C 170.129 797.533,173.212 796.741,175.219 796.436 C 177.226 796.130,180.271 795.325,181.985 794.646 C 183.700 793.968,186.530 793.186,188.274 792.909 C 190.019 792.633,192.490 791.865,193.766 791.204 C 195.042 790.542,197.519 789.630,199.270 789.176 C 201.022 788.722,203.375 787.878,204.498 787.301 C 205.622 786.724,208.013 785.944,209.811 785.568 C 211.610 785.192,213.718 784.420,214.496 783.851 C 215.274 783.283,217.182 782.380,218.738 781.845 C 220.293 781.310,221.936 780.536,222.390 780.126 C 222.844 779.715,224.542 778.923,226.164 778.365 C 227.785 777.807,229.489 777.010,229.949 776.593 C 230.409 776.177,232.178 775.290,233.881 774.623 C 235.584 773.956,237.574 772.940,238.305 772.365 C 239.035 771.791,239.910 771.321,240.249 771.321 C 240.588 771.321,241.747 770.715,242.823 769.974 C 243.899 769.234,246.025 767.969,247.547 767.164 C 253.562 763.983,254.789 763.260,255.809 762.302 C 256.392 761.754,257.772 760.929,258.875 760.468 C 259.978 760.008,261.624 758.978,262.533 758.180 C 263.442 757.382,264.483 756.730,264.845 756.730 C 265.208 756.730,265.936 756.249,266.463 755.662 C 266.990 755.074,268.610 753.921,270.063 753.098 C 271.516 752.275,272.704 751.403,272.704 751.160 C 272.704 750.917,273.440 750.341,274.340 749.881 C 275.239 749.422,276.802 748.340,277.812 747.479 C 280.413 745.261,283.752 742.900,285.635 741.947 C 286.521 741.499,287.427 740.835,287.648 740.473 C 287.869 740.110,288.546 739.476,289.152 739.063 C 290.244 738.319,296.249 732.953,299.793 729.554 C 300.806 728.582,304.069 725.656,307.044 723.050 C 310.019 720.445,312.454 718.183,312.455 718.024 C 312.457 717.866,313.301 716.830,314.331 715.723 C 315.361 714.616,319.105 710.442,322.652 706.447 C 326.198 702.452,329.543 698.874,330.085 698.494 C 330.626 698.115,331.069 697.517,331.069 697.166 C 331.069 696.815,331.650 695.982,332.360 695.315 C 333.071 694.647,334.239 693.023,334.956 691.705 C 335.674 690.387,336.433 689.308,336.643 689.308 C 336.853 689.308,337.543 688.459,338.176 687.421 C 338.810 686.384,339.904 684.961,340.607 684.260 C 341.311 683.559,342.286 682.314,342.775 681.493 C 344.035 679.375,346.679 675.676,348.302 673.758 C 349.063 672.859,349.686 671.837,349.686 671.486 C 349.686 671.135,350.165 670.416,350.751 669.889 C 351.336 669.362,352.319 667.799,352.933 666.415 C 353.548 665.031,354.440 663.578,354.916 663.185 C 355.392 662.792,356.119 661.663,356.531 660.676 C 356.943 659.689,357.712 658.423,358.239 657.862 C 358.766 657.301,359.569 655.939,360.023 654.836 C 360.477 653.733,361.366 652.264,361.999 651.572 C 362.631 650.881,363.416 649.480,363.742 648.459 C 364.067 647.439,364.783 646.033,365.331 645.336 C 365.880 644.638,366.764 642.803,367.296 641.258 C 367.827 639.712,368.724 637.861,369.288 637.144 C 369.853 636.426,370.314 635.595,370.314 635.298 C 370.314 635.000,371.197 632.936,372.275 630.711 C 376.422 622.159,377.766 619.034,378.345 616.604 C 378.674 615.220,379.375 613.390,379.901 612.537 C 380.427 611.685,381.223 609.534,381.669 607.758 C 382.115 605.981,382.923 603.762,383.464 602.825 C 384.005 601.889,384.788 599.625,385.203 597.794 C 385.619 595.963,386.509 592.994,387.182 591.195 C 387.854 589.396,388.741 585.877,389.153 583.375 C 389.564 580.873,390.360 577.788,390.922 576.518 C 391.483 575.249,392.190 572.428,392.492 570.250 C 392.793 568.071,393.579 564.025,394.237 561.258 C 394.896 558.491,395.782 552.830,396.207 548.679 C 397.496 536.108,398.015 533.333,399.081 533.333 C 399.899 533.333,400.000 532.863,400.000 529.057 C 400.000 525.115,399.921 524.780,398.994 524.780 C 398.440 524.780,397.987 524.913,397.987 525.075 M-0.000 1004.963 L -0.000 1204.392 2.334 1204.711 C 3.618 1204.887,93.618 1205.031,202.334 1205.031 L 400.000 1205.031 400.000 1203.648 L 400.000 1202.264 201.887 1202.264 L 3.774 1202.264 3.522 1005.283 C 3.256 797.012,3.363 805.535,1.019 805.535 L 0.000 805.535 -0.000 1004.963 " stroke="none" fill="#84cc98" fill-rule="evenodd"></path></g></svg>