<svg xmlns="http://www.w3.org/2000/svg" width="96" height="288" viewBox="0 0 96 288"><defs><style>.a{fill:#76c488;}.b{fill:#23a09b;}.c{fill:#a7e1d5;}</style></defs><g transform="translate(-667 -266)"><rect class="a" width="96" height="96" transform="translate(667 458)"/><path class="b" d="M0,0H96a0,0,0,0,1,0,0V24A72,72,0,0,1,24,96H0a0,0,0,0,1,0,0V0A0,0,0,0,1,0,0Z" transform="translate(667 362)"/><path class="c" d="M0,0H96a0,0,0,0,1,0,0V24A72,72,0,0,1,24,96H0a0,0,0,0,1,0,0V0A0,0,0,0,1,0,0Z" transform="translate(763 362) rotate(180)"/></g></svg>