<svg xmlns="http://www.w3.org/2000/svg" width="317.333" height="67.118" viewBox="0 0 317.333 67.118">
  <g id="LVA_logo" transform="translate(-122 -54.256)">
    <g id="Сгруппировать_909" data-name="Сгруппировать 909" transform="translate(122 54.256)">
      <rect id="Прямоугольник_2595" data-name="Прямоугольник 2595" width="113.876" height="1.661" transform="translate(0 65.413)" fill="#76c488"/>
      <path id="Контур_14069" data-name="Контур 14069" d="M140.777,93.335h0l-.356.712c-.949,1.423.474,2.491,1.9,3.559l.237.119a4.616,4.616,0,0,0,2.728.83,5.617,5.617,0,0,0-1.542,1.3,3.23,3.23,0,0,0,.356,3.559,5.241,5.241,0,0,1-.712,1.9,4.957,4.957,0,0,0-.474,1.186c-.119,1.068,2.254,1.661,2.728,1.779.119.237.237.356.356.593a3.27,3.27,0,0,0,.83,1.068,1.5,1.5,0,0,0,.712.119,30.068,30.068,0,0,0,3.44-.474h.237a40.491,40.491,0,0,1,4.389-.237v.593a118.5,118.5,0,0,0-30.6,7.829h14.235a71.691,71.691,0,0,1,22.657-6.88h4.626c-.119.712.119,1.9,2.135,2.847a28.816,28.816,0,0,0,9.964,1.661,28.513,28.513,0,0,0,4.389-.356,11.117,11.117,0,0,0,6.88-3.321,2.019,2.019,0,0,0,.119-.83h6.761c4.982.593,9.964,1.186,15.065,2.254a152.078,152.078,0,0,1,17.081,4.626h2.372a148.922,148.922,0,0,0-34.519-7.948V109.7h.83a36.1,36.1,0,0,0,6.168-1.542,11.754,11.754,0,0,0,2.017-1.3,11.752,11.752,0,0,1,2.017-1.3,12.169,12.169,0,0,1,1.661-.474,5.939,5.939,0,0,0,2.847-1.068c1.423-1.068,2.61-2.135,1.661-4.033a4.563,4.563,0,0,0-3.44-2.372l-1.779.356a15.254,15.254,0,0,1-2.254.474,2.28,2.28,0,0,0-1.423-.474A3.284,3.284,0,0,0,204,98.08h-.237c2.372-1.186,6.05-2.847,6.406-2.966.712-.237,6.524-5.457,7-7s0-3.2-.949-3.677c-.237-.119-.237-.119-.237-.237a.652.652,0,0,0-.356-.593c-.119-.119-.356-.237-2.135-.237-1.186,0-3.915.119-5.219.949-.119.119-.237.119-.356.237a13.677,13.677,0,0,1,.356-3.084,3.1,3.1,0,0,0,1.186-2.372,2.65,2.65,0,0,0-1.186-2.135,3.411,3.411,0,0,1-.83-2.135,8.64,8.64,0,0,0-.83-2.847,2.727,2.727,0,0,0-2.372-1.542,4.866,4.866,0,0,0-2.61.83c-1.068.356-2.017,1.779-3.2,4.745-.593,2.017-.356,2.61.474,3.44a3.2,3.2,0,0,1,.83.949c.593.949.593,1.068.237,1.423a2.583,2.583,0,0,0-.593.949,2.3,2.3,0,0,0,.356,2.135c1.186,1.779,4.626,2.135,4.745,2.254h.119c-.949.712-1.9,1.3-2.847,1.9a.788.788,0,0,0-.593.474,2.356,2.356,0,0,0-.119,1.3c-.237-.237-.474-.237-.83-.356-.712,0-1.423.593-2.61,1.423l-.237.119C195.936,93.1,195.7,95,195.7,96.3a2.312,2.312,0,0,1-.119.949c-.119.237-.237.593-.474.712a2.764,2.764,0,0,0-.83,1.779v.593c.119.712.712,1.423,2.135,1.661-.119.237-.237.356-.237.593a3.677,3.677,0,0,1-.712,1.542,1.347,1.347,0,0,0-.356.949v.474a3.908,3.908,0,0,1,0,1.661,4.038,4.038,0,0,0,0,2.372h-6.05c-.119-.119-.119-.237-.237-.237-.356-.593-.83-1.068-1.068-1.423a1.638,1.638,0,0,0-.356-.474,40.2,40.2,0,0,1-2.135-4.626.116.116,0,0,0,.119-.119,26.228,26.228,0,0,1,2.135-4.033c1.068-1.423,2.254-3.084,3.44-4.745,2.61-3.559,3.8-4.982,3.8-5.575v-.474c.949-7.71.119-12.574-2.135-14.59-3.44-2.966-6.88-5.575-9.015-5.457a23.541,23.541,0,0,1,1.661-4.863,8.425,8.425,0,0,1,2.254-2.728,1.638,1.638,0,0,1,.474-.356l.119-.119.474-.474a2.2,2.2,0,0,0,.593-2.491c-.593-1.542-2.966-2.372-3.8-2.491-1.3-.119-14.235,0-14.828,0h-.119c-.356.119-3.2,1.068-3.8,2.61a1.492,1.492,0,0,0,.237,1.542A18.242,18.242,0,0,0,168.3,60h0a29.849,29.849,0,0,1,5.219,7.948,12.965,12.965,0,0,1-1.779.949c-.712.356-1.423.593-2.017.949-.712.356-2.61,1.186-2.135,2.491.356.712,1.423.593,2.135.593.593,0,1.3.119,2.017.119a5.25,5.25,0,0,0-1.3,2.372c-.237,1.3.949,3.914,1.661,5.219a2.561,2.561,0,0,0-2.728,3.084h0c.712,1.3,1.186,2.728,1.779,4.033a1.465,1.465,0,0,0-1.9.712h0a10.27,10.27,0,0,0-.237,3.8,18.427,18.427,0,0,0,.474,4.389c.237,1.068,1.542,1.068,2.491.593-1.186,5.575-2.61,9.727-4.508,12.218-.119.119-.119.237-.237.237h-7.948l-.119-.356s-.712-2.61,4.152-7.117a5.055,5.055,0,0,0,2.61-3.559,3.112,3.112,0,0,0-.593-2.254q2.313-4.27.356-6.406a3.861,3.861,0,0,0-2.728-1.186c-.356,0-.593.119-.949.119l.237-.237.119-.119v-.119c1.068-3.084.474-3.8-.474-4.389a.926.926,0,0,1-.474-.474c-.119-.119-.119-.119.119-.474a2.958,2.958,0,0,0,.474-2.966,2.912,2.912,0,0,0-2.847-1.9c-.712,0-2.017.237-2.254.712a32.578,32.578,0,0,1-3.084,2.61v-.119c-.474-1.186.474-2.135,1.542-3.084.119-.119.356-.237.474-.356.949-.949,2.61-4.626.949-6.287a2.065,2.065,0,0,1-.593-1.779,3.519,3.519,0,0,0-.237-1.9c-.474-1.3-2.254-1.542-3.677-1.542h-.83a9.726,9.726,0,0,0-6.05,4.745A4.642,4.642,0,0,1,142.912,74a3.878,3.878,0,0,0-1.779,1.3c-1.661,2.017-.237,3.321.593,4.152a2.481,2.481,0,0,0,.712.474h.119a4.448,4.448,0,0,1,.119,1.3q0,2.135,1.779,2.135h.83a6.689,6.689,0,0,1,.474,1.423,14.535,14.535,0,0,0-2.254-.237h-.237c-1.661,0-2.017.593-2.372,1.423,0,.119-.119.237-.119.356a1.612,1.612,0,0,0,.356,1.779c.237.356.474.593.712.949-.119.237-.83.356-1.3.474a4.513,4.513,0,0,0-2.017.949,1.138,1.138,0,0,0-.356,1.186A6.431,6.431,0,0,0,140.777,93.335Zm38.671,3.084a44.5,44.5,0,0,0,4.745,13.286c.356.593.712,1.068,1.068,1.661a20.125,20.125,0,0,0,1.186,1.661,8.9,8.9,0,0,1-3.559,1.068,8.2,8.2,0,0,1-1.661-3.2,11.015,11.015,0,0,1-.474-1.542A61.223,61.223,0,0,1,179.447,96.419Zm20.877-11.862a1.461,1.461,0,0,1-.237-1.186,2.592,2.592,0,0,1,.356-.593c.593-.712.712-1.3-.237-2.61a7.674,7.674,0,0,0-.949-1.068c-.593-.593-.712-.712-.237-2.372,1.3-3.321,2.254-4.033,2.728-4.152A7.156,7.156,0,0,1,204,71.864a1.589,1.589,0,0,1,1.542.949,9.846,9.846,0,0,1,.712,2.491,3.861,3.861,0,0,0,1.186,2.728,2.2,2.2,0,0,1,.83,1.423,2.6,2.6,0,0,1-.949,1.661l-.119.119a10.136,10.136,0,0,0-.474,3.8,8.983,8.983,0,0,1-2.135,1.068c-.237-.356,0-1.3-.119-1.779a10.383,10.383,0,0,0-.237-1.9c-.237-1.423-.593-2.847-.83-4.27,0-.356-.712-.119-.712.237.237,1.661.593,3.2.949,4.863a7.211,7.211,0,0,1,.119,2.254V86.1A5.414,5.414,0,0,1,200.325,84.557Zm5.931,2.728c.949-.712,1.9-1.423,2.491-1.779a10.855,10.855,0,0,1,4.745-.83,7.3,7.3,0,0,1,1.542.119,1.149,1.149,0,0,0,.83.949c.356.119.712,1.186.356,2.372s-5.694,5.931-6.287,6.287c-.474.119-4.033,1.9-5.931,2.728v-.119c.119,0,.119-.119.237-.119.949-1.3,1.9-2.61,2.728-3.915a11.413,11.413,0,0,1,2.135-2.61,2.33,2.33,0,0,0,1.068-1.542c0-.237-.593,0-.712.119-2.135,2.372-4.152,4.863-6.05,7.355a.116.116,0,0,1-.119-.119c-.237-.712-.474-1.542-.593-2.017a10.123,10.123,0,0,1-.712-3.677ZM194.987,100.1h0a1.647,1.647,0,0,1,.593-1.186,2.8,2.8,0,0,0,.712-1.068c.119-.356.119-.83.237-1.186.119-1.186.237-2.728,1.3-3.559l.237-.119a5.039,5.039,0,0,1,2.017-1.186s.119,0,.356.237a10.441,10.441,0,0,1,1.186,3.2,2.828,2.828,0,0,0,.712,1.3,11.2,11.2,0,0,0,.356,1.068c-.119.119-.119.237-.237.356s-.119.237-.237.356c-.237.119-.474.356-.712.474-.119.119-.356.237-.474.356-.356.237-.712.474-1.3.83-.119.119-.237.119-.356.237a2.633,2.633,0,0,1,.593-1.3,4.9,4.9,0,0,0,.237-2.254c0-.237-.712,0-.712.237h0a4.031,4.031,0,0,1-.356,2.372,5.022,5.022,0,0,0-.474,1.423l-.712.356h-.712C195.817,101.045,195.105,100.689,194.987,100.1Zm.712,7.355a3.292,3.292,0,0,0,0-2.135V105.2c0-.119.237-.356.356-.593a6.042,6.042,0,0,0,.83-2.017,12.939,12.939,0,0,1,1.3-.712c.237,0,.474-.119.712-.119l.119-.119c1.186-.83,2.017-1.3,2.61-1.779a3.233,3.233,0,0,1,1.423-.712h.119a2.612,2.612,0,0,0,.949-.119c.237,0,.593-.119.83-.119a1.347,1.347,0,0,1,.949.356l.119.119h.119a11,11,0,0,0,2.847-.474c.593-.119,1.3-.356,1.542-.356a3.553,3.553,0,0,1,2.491,1.779c.593,1.068.237,1.661-1.3,2.847a6.39,6.39,0,0,1-2.491.949,11.106,11.106,0,0,0-1.9.474,9.023,9.023,0,0,0-2.254,1.423,15.455,15.455,0,0,1-1.779,1.186,24.5,24.5,0,0,1-5.812,1.423h-1.186a30.246,30.246,0,0,1,7.948-5.931c.474-.237-.237-.356-.474-.237h0a30.6,30.6,0,0,0-8.066,6.05A1.635,1.635,0,0,1,195.7,107.451Zm-3.44-33.688c1.423,1.3,2.966,4.745,1.9,13.879v.474a31.86,31.86,0,0,1-3.677,5.219c-1.186,1.661-2.491,3.2-3.44,4.745a27.045,27.045,0,0,0-2.017,3.559,47.705,47.705,0,0,1-2.966-14.59c2.847-2.254,4.27-4.389,3.915-6.168-.237-1.423-1.542-2.728-3.677-3.44-1.3-1.3-1.9-2.491-1.779-3.44a1.934,1.934,0,0,1,1.3-1.542,7.343,7.343,0,0,1,2.254.83l2.491,1.423c.237.119.474.356.712.474,2.135,1.3,2.372,1.423,2.61,1.068a.539.539,0,0,0,0-.593,6.594,6.594,0,0,0-2.017-1.068,3.552,3.552,0,0,1-.949-.474q-1.423-.89-2.491-1.423c-1.186-.83-2.135-1.9-1.661-3.084a1.356,1.356,0,0,1,.83-.949C185.5,67.95,190.242,71.983,192.258,73.762Zm-7.829-11.388c0,.119,0,.119-.119.237l-5.931,7.355c.356-2.966,1.186-7.948,2.135-9.371A28.662,28.662,0,0,0,186.09,60,12.016,12.016,0,0,0,184.429,62.375ZM167.7,57.748a.784.784,0,0,1-.119-.712c.356-.83,2.017-1.661,3.084-2.017,4.745,0,13.641-.119,14.59,0a4.5,4.5,0,0,1,2.966,1.9,1.559,1.559,0,0,1-.356,1.423c-.119.119-.237.237-.237.356h0a39.1,39.1,0,0,1-9.134.83,65.315,65.315,0,0,1-9.608-.593A5.623,5.623,0,0,1,167.7,57.748Zm1.779,14.59c-.593,0-1.068-.119-.949-.949.119-.712.83-1.068,1.3-1.3.83-.474,1.779-.83,2.61-1.3a3.564,3.564,0,0,0,1.3-.712,8.154,8.154,0,0,1,.593,2.847q-.534-.356-1.423.356H172.8c-.237.237-.474.593-.712.83C171.5,72.695,170.195,72.339,169.483,72.339Zm2.491,1.542c.593-.712,1.068-1.423,1.661-2.135h0c.83-.712,1.068,1.068,1.068,1.423a16.076,16.076,0,0,0,1.186,2.491c.949,2.017.474,4.745-.119,6.643-.356,1.186-1.068.593-1.661-.119a4.261,4.261,0,0,0-.83-1.186,9.037,9.037,0,0,1-1.542-3.44C171.381,76.135,170.906,75.186,171.974,73.881ZM172.211,88c-.949-1.423-1.186-3.2-2.017-4.626h0c-.356-.83.83-3.559,2.135-2.491.119.119.237.119.356.237.237.356.593.83.949,1.3v.119a3.364,3.364,0,0,0,.949,1.3c1.068,1.068.83,2.135.712,3.559a7.037,7.037,0,0,1-.593,2.728c-.356.712-1.068.119-1.661-.712-.119-.119-.119-.356-.237-.474a3.6,3.6,0,0,0-.593-.83S172.211,88.115,172.211,88Zm-2.017,7.948a2.612,2.612,0,0,1-.119-.949l-.356-2.135a8.978,8.978,0,0,1,.119-1.779,7.737,7.737,0,0,1,.237-2.847h0c.474-.712,1.068-.474,1.542,0,.237.474.593.83.83,1.3a4.031,4.031,0,0,1,.356,2.372c-.119.712-.237,1.542-.356,2.254-.119.356-.119.83-.237,1.186,0,.237-.119.474-.119.712C171.855,96.775,171.144,96.775,170.195,95.944Zm3.084-.356c.119-.356.119-.83.237-1.186a31.967,31.967,0,0,0,.474-3.321c1.9.237,2.135-2.61,2.135-4.033a4.017,4.017,0,0,0-.949-3.2.7.7,0,0,0,.83-.119c1.9-2.966,1.423-6.88-.237-9.727-.237-.474-.474-1.3-.712-1.9l.119-.83c.119-4.27-3.321-8.9-5.1-11.032a68.709,68.709,0,0,0,8.541.474h1.068c-1.3,2.728-2.135,9.846-2.135,10.795l-.119,1.423,6.05-7.473a12.045,12.045,0,0,0-.712,2.966h0a2.134,2.134,0,0,0-.712,1.068,2.634,2.634,0,0,0,.119,1.9h0l-.119.474h-.474A3.238,3.238,0,0,0,179.8,74c-.237,1.068.356,2.254,1.423,3.559V77.8a60.289,60.289,0,0,0-.237,9.252c.83,12.811,5.575,20.759,5.694,20.877a1.637,1.637,0,0,1,.356.474c.237.356.712.83,1.068,1.423a8.848,8.848,0,0,1,.83,1.423v.119a7.616,7.616,0,0,1-1.542,1.186,15.454,15.454,0,0,1-1.186-1.779,10.828,10.828,0,0,1-.949-1.542A42.538,42.538,0,0,1,179.922,87.4v-.356h0v-.474h-.949v.356h0v.237h0c-.593,9.727-.237,17.2.949,22.182a8.74,8.74,0,0,0,.474,1.661,9.106,9.106,0,0,0,1.542,3.084c-5.219.593-11.032-.474-12.811-1.3-.712-.356-1.661-.949-1.542-1.9,0-.119.119-.356.119-.474.237-.356.593-.593.83-.949C170.432,106.858,172.093,102.113,173.279,95.588Zm-22.3,13.167h-.237a27.97,27.97,0,0,1-3.321.474h-.237c-.119-.237-.237-.356-.356-.593-.237-.474-.474-.949-.949-1.068a5.45,5.45,0,0,1-1.9-.83c.119-.237.237-.593.356-.83.712-1.3,1.068-2.254.593-2.847a2.387,2.387,0,0,1-.356-2.491,6.867,6.867,0,0,1,2.966-1.779,20.916,20.916,0,0,1,2.728,0c.356,0,1.3.119,2.017.119h.83A2.859,2.859,0,0,1,154.3,100.1a3.711,3.711,0,0,0,.593,1.186c.119.237.119.356.237.593a.116.116,0,0,0,.119.119c0,.119.119.119.119.237.119.119.119.237.237.474.712,1.3,2.135,3.8,2.254,5.457a1.638,1.638,0,0,1-.474.356.436.436,0,0,1-.356.119h-.356c-1.186-.83-2.372-1.779-3.559-2.728a32.577,32.577,0,0,0-3.084-2.61c-.237-.119-.83.119-.593.356h0c1.186.83,2.135,2.017,3.321,2.847a18.327,18.327,0,0,0,2.847,2.254A19.753,19.753,0,0,0,150.978,108.755Zm5.694.712Zm6.287-19.81a2.778,2.778,0,0,1,2.017.83c1.542,1.542,0,4.389-.474,5.338-.119.356-.356.593,0,.83a2.22,2.22,0,0,1,.593,1.661,4.919,4.919,0,0,1-2.254,2.847,14.3,14.3,0,0,0-3.44,4.152c.119-1.423.356-2.847.593-4.27.237-1.661,1.068-3.677.83-5.338,0-.237-.712-.119-.712.237.237,1.661-.593,4.033-.83,5.812-.119,1.186-.356,2.372-.474,3.677a5.49,5.49,0,0,0-1.542-2.135c-.237-.356-.356-.712-.593-1.068-.119-.356-.356-.593-.356-.712s0-.119-.119-.237a8.509,8.509,0,0,1-.712-3.44,1.272,1.272,0,0,0,.237-.712,1.951,1.951,0,0,0,.119-1.186c-.119-.712-.237-2.135.119-2.491.119-.119.237-.119.356-.237l.119-.119c.237,0,.474.119.712.119h.356a2.03,2.03,0,0,0,1.9-1.423,14.214,14.214,0,0,1,1.3-1.423A3.211,3.211,0,0,1,162.959,89.657Zm-5.219-10.2a2.554,2.554,0,0,1,1.3-.237,1.83,1.83,0,0,1,1.9,1.186,1.642,1.642,0,0,1-.356,2.017,1.289,1.289,0,0,0-.119,1.779,3.145,3.145,0,0,0,.712.593c.593.356.949.593.119,3.084l-1.779,1.779c-.237.119-.356.356-.593.474a4,4,0,0,0-.593-2.017c-.356-.474-1.068-.593-1.186-1.3a5.775,5.775,0,0,1-.119-1.423c0-.237-.712,0-.712.237h0c.119.83,0,1.542.593,2.135A2.453,2.453,0,0,1,158.1,89.42a6.763,6.763,0,0,1,.119,1.542c0,.119-.119.119-.237.237a2.025,2.025,0,0,1-1.186,1.068.436.436,0,0,1-.356-.119c0-.119,0-.119-.119-.237h0a1.682,1.682,0,0,0-1.779-1.423h0c-1.068-.356-1.779-1.779-2.254-2.61-.119-.237-.237-.356-.237-.474a4.53,4.53,0,0,0-1.068-1.068,19.346,19.346,0,0,0,2.135-3.084c.237-.119.356-.356.593-.474A19.449,19.449,0,0,0,157.739,79.456Zm-12.574,2.728h-.474c-.356,0-.83,0-.83-1.186,0-1.423-.119-1.9-.83-2.254-.119-.119-.356-.119-.474-.356-.949-.949-1.423-1.542-.474-2.728a2.487,2.487,0,0,1,1.3-.949,5.08,5.08,0,0,0,2.966-3.084,8.529,8.529,0,0,1,5.219-4.27h.712c1.542,0,2.491.356,2.728.83a2.921,2.921,0,0,1,.119,1.423,3.058,3.058,0,0,0,.83,2.61c1.068,1.068-.237,4.152-.949,4.863l-.356.356c-.949.83-2.491,2.254-1.779,4.152a1.912,1.912,0,0,1-.474.83,10.843,10.843,0,0,0-2.372,2.847l-1.3-.474c.474-1.779.119-3.8.712-5.575a6.8,6.8,0,0,0,.712-2.966c0-.356-.712-.119-.712.237h0a4.278,4.278,0,0,1-.474,2.372l-.119.119a2.2,2.2,0,0,0-.237.83,5.348,5.348,0,0,0-.356,1.3,7.334,7.334,0,0,0-.356,3.559l-.949-.356h0c-.119-.83-.356-2.017-1.3-2.135Zm-5.694,8.778a3.5,3.5,0,0,1,1.542-.593c.83-.237,1.661-.474,1.9-1.068a1.3,1.3,0,0,0,0-.949,8.325,8.325,0,0,0-.712-1.068c-.356-.474-.356-.474-.237-.712.119-.119.119-.356.237-.474.237-.593.237-.712,1.423-.712h.237a29.38,29.38,0,0,1,3.2.356,9.157,9.157,0,0,0,1.779.237,4.467,4.467,0,0,1,1.779,1.068,9.894,9.894,0,0,1,.949,1.423c.83,1.423,1.779,2.966,3.084,3.084h.119c.474.119.712.237.83.474a1.025,1.025,0,0,1-.356.712,2.021,2.021,0,0,0-.949,1.9c0,.237.119.593.119.83a5.954,5.954,0,0,1,.237,1.423.116.116,0,0,1-.119.119,2.5,2.5,0,0,1-1.542.593c-.593,0-1.068.119-1.3.119a5.71,5.71,0,0,0-1.423-1.9,11.55,11.55,0,0,1-1.779-2.847c-.119-.237-.83,0-.712.237h0a12.137,12.137,0,0,0,1.661,2.61,11.979,11.979,0,0,1,1.542,1.9h-3.559a5.069,5.069,0,0,1-3.915-.593l-.237-.119c-1.423-1.068-2.135-1.661-1.779-2.254.474-.712.83-1.186.593-1.661-.119-.356-.474-.474-.83-.593-.474-.119-1.423-.712-1.542-1.186C139.472,91.081,139.472,91.081,139.472,90.962Z" transform="translate(-121.441 -54.256)" fill="#76c488"/>
      <path id="Контур_14070" data-name="Контур 14070" d="M171.8,58.759h1.068c1.186-.119,2.017-.356,2.254-.83a1.042,1.042,0,0,0,.119-.83,2.817,2.817,0,0,0-2.372-1.9h-.119c-1.542,0-5.575,2.491-5.694,2.61l-.356.237.356.119A22.572,22.572,0,0,0,171.8,58.759Zm1.068-3.2a2.494,2.494,0,0,1,2.017,1.542h0c.119.119,0,.356,0,.474-.119.237-.712.593-2.017.712h-.949a24.738,24.738,0,0,1-4.152-.474C168.717,57.217,171.682,55.556,172.868,55.556Z" transform="translate(-113.676 -54.08)" fill="#76c488"/>
      <path id="Контур_14071" data-name="Контур 14071" d="M190.6,74.7Z" transform="translate(-109.226 -50.449)" fill="#76c488"/>
    </g>
    <g id="nosaukums" transform="translate(254.877 77.698)">
      <path id="Path_323" d="M609.166,378.943h-6.05V367.2H601.1v13.286h8.066Z" transform="translate(-600.388 -363.285)" fill="#474747"/>
      <path id="Path_324" d="M618.059,377.283l1.186,3.2h2.135L616.517,367.2h-2.254L609.4,380.486h2.135l1.186-3.2Zm-2.728-7.71,2.135,6.05H613.2Z" transform="translate(-598.843 -363.285)" fill="#474747"/>
      <path id="Path_325" d="M623.415,380.486h2.017V368.861h3.914V367.2H619.5v1.661h3.915Z" transform="translate(-596.962 -363.285)" fill="#474747"/>
      <path id="Path_326" d="M641.218,367.2h-2.135l-4.033,11.15-4.033-11.15H629l4.863,13.286h2.372Z" transform="translate(-595.193 -363.285)" fill="#474747"/>
      <rect id="Rectangle_1490" width="2.017" height="13.286" transform="translate(48.16 3.915)" fill="#474747"/>
      <path id="Path_327" d="M652.75,376.808V367.2h-2.016v9.608a2.384,2.384,0,0,1-.475,1.542,1.444,1.444,0,0,1-1.423.593,2.255,2.255,0,0,1-1.542-.593,2.609,2.609,0,0,1-.475-1.542H644.8a4,4,0,0,0,1.068,2.966,4.555,4.555,0,0,0,2.966,1.068,4.251,4.251,0,0,0,2.847-1.068A4.555,4.555,0,0,0,652.75,376.808Z" transform="translate(-592.254 -363.286)" fill="#474747"/>
      <path id="Path_328" d="M664.881,380.486,660.017,367.2h-2.254L652.9,380.486h2.135l1.186-3.2h5.457l1.186,3.2Zm-8.066-4.863,2.135-6.05,2.135,6.05Z" transform="translate(-590.742 -363.286)" fill="#474747"/>
      <path id="Path_329" d="M672.348,373.9a11.981,11.981,0,0,0-1.779-.83c-.712-.237-1.3-.474-1.779-.593a3.562,3.562,0,0,1-1.3-.712,1.523,1.523,0,0,1-.475-1.186,2.189,2.189,0,0,1,.593-1.423,2.384,2.384,0,0,1,1.542-.474,2.7,2.7,0,0,1,1.3.356,5.159,5.159,0,0,1,.83.712,2.791,2.791,0,0,1,.237.949h2.135a4,4,0,0,0-.593-2.017,3.28,3.28,0,0,0-1.542-1.3,5.14,5.14,0,0,0-2.254-.474,4.814,4.814,0,0,0-2.254.474,3.28,3.28,0,0,0-1.542,1.3,2.853,2.853,0,0,0-.474,1.9,3.312,3.312,0,0,0,.712,2.135,5.376,5.376,0,0,0,2.254,1.3c.474.119,1.068.356,1.423.474a12.3,12.3,0,0,1,1.186.474c.356.119.593.475.83.712a2,2,0,0,1,.356,1.186,1.691,1.691,0,0,1-.712,1.423,3.038,3.038,0,0,1-3.8-.237,2.414,2.414,0,0,1-.712-1.779H664.4a4.906,4.906,0,0,0,.593,2.254,4.645,4.645,0,0,0,1.661,1.423,6.384,6.384,0,0,0,2.61.474,4.561,4.561,0,0,0,2.491-.593,4.442,4.442,0,0,0,1.542-1.423,4.033,4.033,0,0,0,0-3.8Z" transform="translate(-588.601 -363.341)" fill="#474747"/>
      <path id="Path_330" d="M685.673,380.486l4.863-13.286H688.4l-4.033,11.15-4.033-11.15H678.2l4.863,13.286Z" transform="translate(-586.031 -363.286)" fill="#474747"/>
      <path id="Path_331" d="M690.5,380.486h8.422v-1.661h-6.406v-4.27h5.813v-1.542h-5.812v-4.152h6.406V367.2H690.5Z" transform="translate(-583.741 -363.285)" fill="#474747"/>
      <path id="Path_332" d="M706,368.879a4.277,4.277,0,0,1,2.372.712,3.492,3.492,0,0,1,1.186,1.9h2.254a5.01,5.01,0,0,0-1.9-3.2,6.268,6.268,0,0,0-3.8-1.186,7.021,7.021,0,0,0-3.44.83,6.17,6.17,0,0,0-2.254,2.372,8.309,8.309,0,0,0,0,7.117,6.169,6.169,0,0,0,2.254,2.372,5.935,5.935,0,0,0,3.44.83,6.163,6.163,0,0,0,3.8-1.068,5.273,5.273,0,0,0,1.9-3.084H709.56a2.993,2.993,0,0,1-1.186,1.779,3.412,3.412,0,0,1-2.372.593,4.583,4.583,0,0,1-3.2-1.3,5.927,5.927,0,0,1-1.186-3.677,5.281,5.281,0,0,1,1.186-3.677A3.76,3.76,0,0,1,706,368.879Z" transform="translate(-582.042 -363.304)" fill="#474747"/>
      <path id="Path_333" d="M718.98,376.1l-4.508-8.9H712.1v13.286h2.017V370.64l4.033,7.948h1.542l4.033-7.948v9.846h2.017V367.2h-2.372Z" transform="translate(-579.719 -363.285)" fill="#474747"/>
      <path id="Path_334" d="M730.464,367.2,725.6,380.486h2.135l1.186-3.2h5.457l1.186,3.2H737.7L732.836,367.2Zm-1.068,8.422,2.135-6.05,2.135,6.05Z" transform="translate(-577.205 -363.285)" fill="#474747"/>
      <rect id="Rectangle_1491" width="6.88" height="1.423" transform="translate(150.886 0.83)" fill="#474747"/>
      <path id="Path_335" d="M744.948,373.9a11.983,11.983,0,0,0-1.779-.83c-.712-.237-1.3-.474-1.779-.593a3.562,3.562,0,0,1-1.3-.712,1.523,1.523,0,0,1-.474-1.186,2.189,2.189,0,0,1,.593-1.423,2.384,2.384,0,0,1,1.542-.474,2.7,2.7,0,0,1,1.3.356,5.159,5.159,0,0,1,.83.712,2.792,2.792,0,0,1,.237.949h2.135a4,4,0,0,0-.593-2.017,3.279,3.279,0,0,0-1.542-1.3,5.14,5.14,0,0,0-2.254-.474,4.814,4.814,0,0,0-2.254.474,3.28,3.28,0,0,0-1.542,1.3,2.853,2.853,0,0,0-.474,1.9,3.312,3.312,0,0,0,.712,2.135,5.376,5.376,0,0,0,2.254,1.3c.475.119,1.068.356,1.423.474a12.314,12.314,0,0,1,1.186.474c.356.119.593.475.83.712a2,2,0,0,1,.356,1.186,1.691,1.691,0,0,1-.712,1.423,3.038,3.038,0,0,1-3.8-.237,2.615,2.615,0,0,1-.712-1.779H737a4.907,4.907,0,0,0,.593,2.254,4.645,4.645,0,0,0,1.661,1.423,6.384,6.384,0,0,0,2.61.474,4.561,4.561,0,0,0,2.491-.593,4.442,4.442,0,0,0,1.542-1.423,4.033,4.033,0,0,0,0-3.8Z" transform="translate(-575.082 -363.341)" fill="#474747"/>
      <path id="Path_336" d="M744.257,365.323V363.9l-2.728,1.542L738.8,363.9v1.423l2.728,1.542Z" transform="translate(-574.747 -363.9)" fill="#474747"/>
      <path id="Path_337" d="M755.485,367.2v8.3a3.473,3.473,0,0,1-.83,2.61,3.572,3.572,0,0,1-4.508,0,3.473,3.473,0,0,1-.83-2.61v-8.3H747.3v8.3a6.431,6.431,0,0,0,.712,2.966,4.757,4.757,0,0,0,1.779,1.661,6.465,6.465,0,0,0,2.61.593,6.942,6.942,0,0,0,2.61-.593,4.315,4.315,0,0,0,1.9-1.661,6.43,6.43,0,0,0,.712-2.966v-8.3Z" transform="translate(-573.164 -363.285)" fill="#474747"/>
      <path id="Path_338" d="M605.363,389.2,600.5,402.486h1.661l1.186-3.44h5.694l1.186,3.44h1.661L607.024,389.2Zm-1.542,8.659,2.372-6.524,2.372,6.524Z" transform="translate(-600.5 -359.189)" fill="#474747"/>
      <path id="Path_339" d="M619.41,396.117a10.849,10.849,0,0,0-1.661-.83l-2.017-.712a2.828,2.828,0,0,1-1.3-.712,1.784,1.784,0,0,1-.474-1.3,1.913,1.913,0,0,1,.712-1.542,3.2,3.2,0,0,1,1.779-.593,3.159,3.159,0,0,1,1.423.356,1.869,1.869,0,0,1,.83.83,1.763,1.763,0,0,1,.237,1.068H620.6a3.584,3.584,0,0,0-.593-1.9,3.019,3.019,0,0,0-1.423-1.3,4.814,4.814,0,0,0-2.254-.474,5.141,5.141,0,0,0-2.254.474,3.019,3.019,0,0,0-1.423,1.3,3.481,3.481,0,0,0-.475,1.9,2.994,2.994,0,0,0,.712,2.017,5.377,5.377,0,0,0,2.254,1.3,11.019,11.019,0,0,0,1.542.475c.474.119.949.356,1.3.474a3.2,3.2,0,0,1,.949.83,2.391,2.391,0,0,1,.356,1.3,2.342,2.342,0,0,1-.712,1.661,2.7,2.7,0,0,1-2.135.593,3.789,3.789,0,0,1-1.661-.356,2.328,2.328,0,0,1-1.068-1.068,3.158,3.158,0,0,1-.356-1.423H611.7a4.907,4.907,0,0,0,.593,2.254,3.272,3.272,0,0,0,1.661,1.423,4.683,4.683,0,0,0,2.491.474,6.2,6.2,0,0,0,2.491-.474,4.443,4.443,0,0,0,1.542-1.423,3.348,3.348,0,0,0,.474-1.779,3.756,3.756,0,0,0-.474-1.9A2.8,2.8,0,0,0,619.41,396.117Z" transform="translate(-598.414 -359.226)" fill="#474747"/>
      <path id="Path_340" d="M631.359,389.94a7.1,7.1,0,0,0-6.88,0,6.168,6.168,0,0,0-2.254,2.372,8.308,8.308,0,0,0,0,7.117,5.447,5.447,0,0,0,2.254,2.372,7.1,7.1,0,0,0,6.88,0,6.168,6.168,0,0,0,2.254-2.372,8.308,8.308,0,0,0,0-7.117A6.168,6.168,0,0,0,631.359,389.94Zm.83,8.9a3.936,3.936,0,0,1-1.779,1.9,4.891,4.891,0,0,1-6.88-1.9,7.09,7.09,0,0,1,0-5.812,3.935,3.935,0,0,1,1.779-1.9,4.891,4.891,0,0,1,6.88,1.9A7.091,7.091,0,0,1,632.19,398.836Z" transform="translate(-596.604 -359.217)" fill="#474747"/>
      <path id="Path_341" d="M638.191,391.138a4.669,4.669,0,0,1,2.491-.712,4.385,4.385,0,0,1,2.491.712,3.2,3.2,0,0,1,1.186,2.017h1.779a5.469,5.469,0,0,0-1.779-3.084A5.821,5.821,0,0,0,640.682,389a6.289,6.289,0,0,0-3.321.83,5.858,5.858,0,0,0-2.135,2.372,8.309,8.309,0,0,0,0,7.117,6.851,6.851,0,0,0,2.135,2.372,5.566,5.566,0,0,0,3.321.83,6.659,6.659,0,0,0,3.677-1.068,4.349,4.349,0,0,0,1.779-2.966h-1.779a3.492,3.492,0,0,1-1.186,1.9,3.823,3.823,0,0,1-2.491.712,4.669,4.669,0,0,1-2.491-.712,4.317,4.317,0,0,1-1.661-1.9,7.091,7.091,0,0,1,0-5.812A5.248,5.248,0,0,1,638.191,391.138Z" transform="translate(-594.183 -359.229)" fill="#474747"/>
      <rect id="Rectangle_1492" width="1.542" height="13.286" transform="translate(54.803 30.011)" fill="#474747"/>
      <rect id="Rectangle_1493" width="6.643" height="1.186" transform="translate(61.209 27.046)" fill="#474747"/>
      <path id="Path_342" d="M654.964,389.2,650.1,402.486h1.661l1.186-3.44h5.694l1.186,3.44h1.661L656.624,389.2Zm-1.542,8.659,2.372-6.524,2.372,6.524Z" transform="translate(-591.264 -359.189)" fill="#474747"/>
      <path id="Path_343" d="M664.491,391.138a4.669,4.669,0,0,1,2.491-.712,4.385,4.385,0,0,1,2.491.712,3.2,3.2,0,0,1,1.186,2.017h1.779a5.469,5.469,0,0,0-1.779-3.084A5.821,5.821,0,0,0,666.982,389a6.289,6.289,0,0,0-3.321.83,5.857,5.857,0,0,0-2.135,2.372,8.308,8.308,0,0,0,0,7.117,6.851,6.851,0,0,0,2.135,2.372,5.566,5.566,0,0,0,3.321.83,6.66,6.66,0,0,0,3.677-1.068,4.349,4.349,0,0,0,1.779-2.966H670.66a3.493,3.493,0,0,1-1.186,1.9,3.823,3.823,0,0,1-2.491.712,4.669,4.669,0,0,1-2.491-.712,4.316,4.316,0,0,1-1.661-1.9,7.09,7.09,0,0,1,0-5.812A5.246,5.246,0,0,1,664.491,391.138Z" transform="translate(-589.285 -359.229)" fill="#474747"/>
      <rect id="Rectangle_1494" width="1.542" height="13.286" transform="translate(86 30.011)" fill="#474747"/>
      <path id="Path_344" d="M682.35,399.008a2.723,2.723,0,0,1-.475,1.661,2.154,2.154,0,0,1-1.661.712,2.036,2.036,0,0,1-1.779-.712,2.724,2.724,0,0,1-.474-1.661H676.3a4.25,4.25,0,0,0,1.068,2.847,3.5,3.5,0,0,0,2.847.949,3.316,3.316,0,0,0,3.677-3.677V389.4H682.35Z" transform="translate(-586.385 -359.152)" fill="#474747"/>
      <path id="Path_345" d="M689.163,389.2,684.3,402.486h1.661l1.186-3.44h5.694l1.186,3.44h1.661L690.824,389.2Zm-1.423,8.659,2.372-6.524,2.372,6.524Z" transform="translate(-584.895 -359.189)" fill="#474747"/>
    </g>
  </g>
</svg>
