<svg xmlns="http://www.w3.org/2000/svg" width="130" height="76.944" viewBox="0 0 130 76.944">
  <g id="simbols" transform="translate(0 0.044)">
    <rect id="Прямоугольник_2594" data-name="Прямоугольник 2594" width="130" height="1.9" transform="translate(0 75)" fill="#76c488"/>
    <path id="Контур_14067" data-name="Контур 14067" d="M22,45h0a4.053,4.053,0,0,1-.5.9c-1.1,1.6.6,2.9,2.2,4.1l.2.2a5.711,5.711,0,0,0,3.1,1,5.353,5.353,0,0,0-1.8,1.5,3.831,3.831,0,0,0,.4,4.1,5.838,5.838,0,0,1-.8,2.2,5.783,5.783,0,0,0-.5,1.4c-.2,1.3,2.6,2,3.1,2.1a1.612,1.612,0,0,1,.4.7,2.73,2.73,0,0,0,.9,1.2,2.92,2.92,0,0,0,.9.2c1.3-.1,2.7-.3,4-.5h.3c.8-.1,3.3-.3,5.1-.3V64A131.9,131.9,0,0,0,4.1,73H20.3c7-3.7,15.8-6.4,25.9-7.8h5.3c-.1.8.1,2.1,2.4,3.2a32.332,32.332,0,0,0,11.4,1.9,25.923,25.923,0,0,0,4.8-.4h.1c3.5-.6,6.1-1.8,7.8-3.7a1.147,1.147,0,0,0,.1-1h7.7c5.6.7,11.4,1.4,17.2,2.6A178.524,178.524,0,0,1,122.4,73h2.7a171.28,171.28,0,0,0-39.3-9.1v-.1h1a34.045,34.045,0,0,0,7-1.7,11.355,11.355,0,0,0,2.3-1.5,11.355,11.355,0,0,1,2.3-1.5,11.7,11.7,0,0,1,2-.5,7.888,7.888,0,0,0,3.3-1.3c1.7-1.2,3-2.4,1.9-4.6a5.04,5.04,0,0,0-3.9-2.7,11.8,11.8,0,0,0-2,.4,24.374,24.374,0,0,1-2.6.6,2.155,2.155,0,0,0-1.7-.5,4.869,4.869,0,0,0-1.2.1h-.4c2.7-1.3,6.9-3.3,7.3-3.4.8-.2,7.5-6.2,8-7.9.5-1.8,0-3.7-1.1-4.1-.2-.1-.2-.1-.3-.3a1.012,1.012,0,0,0-.4-.7c-.1-.1-.4-.3-2.4-.3-1.3,0-4.5.1-6,1.1a2.186,2.186,0,0,1-.5.3,13.425,13.425,0,0,1,.4-3.5,4.2,4.2,0,0,0,1.4-2.7,3.232,3.232,0,0,0-1.3-2.4,3.841,3.841,0,0,1-.9-2.5,9.014,9.014,0,0,0-.9-3.2,2.988,2.988,0,0,0-2.8-1.7,7.5,7.5,0,0,0-3,.9c-1.2.4-2.3,2.1-3.7,5.4-.7,2.3-.4,2.9.5,3.9a4.811,4.811,0,0,1,.9,1.1c.7,1,.6,1.2.3,1.6a2.664,2.664,0,0,0-.6,1,2.924,2.924,0,0,0,.4,2.4c1.4,2,5.3,2.5,5.4,2.5h.2a27.032,27.032,0,0,1-3.3,2.2,1.157,1.157,0,0,0-.7.5,3.416,3.416,0,0,0-.2,1.5,1.689,1.689,0,0,0-1-.3c-.8,0-1.6.6-3,1.6l-.3.2c-1.7,1.3-1.8,3.4-2,4.8a3.6,3.6,0,0,1-.2,1.1,2.361,2.361,0,0,1-.6.9,3.215,3.215,0,0,0-1,2.1v.2c.2.8.7,1.6,2.4,1.9a.908.908,0,0,0-.3.7,14.166,14.166,0,0,1-.8,1.8,3.7,3.7,0,0,0-.5,1.1.9.9,0,0,0,.1.5,5.438,5.438,0,0,1,0,1.8,3.865,3.865,0,0,0,0,2.6H76.8c.3-.1.2-.2.2-.3-.4-.6-.9-1.2-1.2-1.6-.2-.2-.3-.4-.4-.5A40.415,40.415,0,0,1,73,55.6l.1-.1a29.4,29.4,0,0,1,2.5-4.6c1.2-1.7,2.6-3.6,4-5.4,3-4,4.3-5.8,4.3-6.4l.1-.5c1-8.8.2-14.3-2.5-16.7-3.9-3.4-7.8-6.4-10.3-6.2a23.147,23.147,0,0,1,1.9-5.6,9.923,9.923,0,0,1,2.6-3.2c.2-.1.3-.3.5-.4l.2-.2.6-.6a2.649,2.649,0,0,0,.7-2.8C77,1.1,74.3.1,73.3,0,71.9-.1,57,0,56.4,0h-.2c-.4.1-3.7,1.2-4.4,3A2.247,2.247,0,0,0,52,4.8a7.28,7.28,0,0,0,1.7,1.8h0a30.029,30.029,0,0,1,6,9,12.81,12.81,0,0,1-2,1.1c-.8.4-1.6.7-2.3,1.1-.9.4-3,1.4-2.4,2.8.4.9,1.7.6,2.4.7a15.483,15.483,0,0,0,2.2.1,6.63,6.63,0,0,0-1.5,2.7c-.3,1.6,1,4.5,1.9,5.9a2.883,2.883,0,0,0-3.1,3.5h0c.8,1.5,1.3,3.1,2,4.6a1.7,1.7,0,0,0-2.2.7h0c-.6,1.5-.3,2.8-.3,4.4a27.341,27.341,0,0,0,.5,5c.2,1.3,1.8,1.2,2.8.7-1.3,6.4-3,11.1-5.1,13.9l-.3.3H43.2l-.1-.4s-.9-3,4.7-8.1c1.8-1.3,2.9-2.6,3-4a4.1,4.1,0,0,0-.7-2.6c1.8-3.3,1.9-5.7.4-7.3a4.01,4.01,0,0,0-3.1-1.3c-.4,0-.7.1-1.1.1l.3-.3.1-.1V39c1.2-3.5.6-4.3-.5-5a2.651,2.651,0,0,1-.6-.5c-.1-.2-.1-.2.2-.6a3.07,3.07,0,0,0,.5-3.3A3.247,3.247,0,0,0,43,27.4c-.9,0-2.3.3-2.5.9A19.27,19.27,0,0,1,37,31.2v-.1c-.6-1.3.5-2.5,1.7-3.6a1.756,1.756,0,0,1,.5-.4c1.1-1,3-5.3,1.1-7.2a2.026,2.026,0,0,1-.6-2.1,5.022,5.022,0,0,0-.2-2.1c-.5-1.5-2.5-1.8-4.1-1.8h-.9c-.8,0-4.5,1.3-6.9,5.5-1.1,2.3-2,2.7-2.9,3.1a4.831,4.831,0,0,0-2,1.4c-1.9,2.3-.3,3.8.6,4.7a5.547,5.547,0,0,0,.8.6l.1.1a3.437,3.437,0,0,1,.1,1.4q0,2.4,2.1,2.4h1a3.022,3.022,0,0,1,.5,1.6c-.9-.1-1.7-.2-2.6-.3h-.2c-2,0-2.4.6-2.7,1.6-.1.1-.1.3-.2.4a1.858,1.858,0,0,0,.5,2.1,10.475,10.475,0,0,1,.8,1.1,3.565,3.565,0,0,1-1.5.6,5.535,5.535,0,0,0-2.2,1,1.26,1.26,0,0,0-.3,1.3A4.063,4.063,0,0,0,22,45ZM68.2,65a12.091,12.091,0,0,1-.5-1.8,64.025,64.025,0,0,1-1.4-14.7,46.842,46.842,0,0,0,5.4,15.1c.4.6.8,1.2,1.2,1.9.4.6.9,1.3,1.4,2a15.194,15.194,0,0,1-4.1,1.3A9.537,9.537,0,0,1,68.2,65ZM90.1,34.9a1.735,1.735,0,0,1-.3-1.4,1.794,1.794,0,0,1,.5-.7c.7-.8.8-1.5-.2-3A6.279,6.279,0,0,0,89,28.6c-.7-.7-.8-.8-.3-2.7,1.5-3.8,2.5-4.6,3.1-4.8a6.068,6.068,0,0,1,2.6-.8h0a1.889,1.889,0,0,1,1.8,1.1,9.612,9.612,0,0,1,.8,2.9,4.387,4.387,0,0,0,1.3,3.1,2.6,2.6,0,0,1,.9,1.6,3.09,3.09,0,0,1-1.1,2l-.1.1a13.011,13.011,0,0,0-.6,4.4A18.342,18.342,0,0,1,95,36.8a6.56,6.56,0,0,1-.1-2c-.1-.7-.2-1.5-.3-2.2-.2-1.6-.7-3.2-.9-4.9-.1-.4-.9-.2-.8.2h0c.3,1.9.7,3.7,1,5.6a7.584,7.584,0,0,1,.1,2.6v.7C92.8,36.6,90.8,36,90.1,34.9Zm1.7,6.5h0c.8-.2,2.4-1.4,5-3.4,1.1-.8,2.1-1.6,2.8-2.1,1-.7,3.5-.9,5.4-.9a9.7,9.7,0,0,1,1.7.1,1.673,1.673,0,0,0,.9,1.1c.4.2.8,1.3.4,2.8-.4,1.3-6.4,6.8-7.2,7.2-.6.2-4.6,2.1-6.7,3.1v-.2a.349.349,0,0,0,.2-.1c1.1-1.5,2.1-3,3.1-4.5a14.246,14.246,0,0,1,2.5-3,3.381,3.381,0,0,0,1.3-1.8c.1-.3-.7,0-.8.1a80.059,80.059,0,0,0-6.9,8.5l-.2-.2a21.9,21.9,0,0,0-.7-2.3C92,43.9,91.6,41.9,91.8,41.4ZM83.9,52.7a2.091,2.091,0,0,1,.7-1.3,3.528,3.528,0,0,0,.8-1.3,6.753,6.753,0,0,0,.2-1.4c.1-1.3.3-3.1,1.5-4l.3-.2a6.776,6.776,0,0,1,2.3-1.4c.1,0,.2,0,.4.2A9.629,9.629,0,0,1,91.4,47a3.766,3.766,0,0,0,.9,1.5,10.376,10.376,0,0,0,.3,1.2c-.1.1-.2.3-.3.4s-.2.3-.3.4c-.3.2-.5.4-.8.6h0c-.2.2-.4.3-.6.5a14.63,14.63,0,0,1-1.3.9c-.2.1-.3.2-.5.3a4.128,4.128,0,0,1,.7-1.5,5.66,5.66,0,0,0,.3-2.6c0-.2-.8-.1-.8.2h0a4.972,4.972,0,0,1-.4,2.7,4.418,4.418,0,0,0-.6,1.6,6.89,6.89,0,0,1-.8.3h-.9C84.9,53.7,84.1,53.3,83.9,52.7Zm.8,8.3a6.473,6.473,0,0,0,.1-2.4c0-.1,0-.2-.1-.1,0-.1.2-.4.3-.7a5.048,5.048,0,0,0,.9-2.3,6.11,6.11,0,0,1,1.4-.7c.3,0,.6-.1.9-.1l.2-.1c1.8-1.2,2.8-1.9,3.5-2.4a3.582,3.582,0,0,1,1.1-.4h.1a4.1,4.1,0,0,0,1.1-.1,3.4,3.4,0,0,1,1-.1,1.5,1.5,0,0,1,1.1.4l.1.1h.1a9.6,9.6,0,0,0,3.3-.6,12.036,12.036,0,0,1,1.7-.4,3.8,3.8,0,0,1,2.8,2.1c.6,1.3.3,1.9-1.5,3.2a7.29,7.29,0,0,1-2.9,1.1,9.017,9.017,0,0,0-2.2.6,13.989,13.989,0,0,0-2.6,1.6,8.577,8.577,0,0,1-2,1.3,31.136,31.136,0,0,1-6.7,1.6H85.1a32.877,32.877,0,0,1,9-6.8c.5-.3-.2-.4-.5-.3h0a34.68,34.68,0,0,0-9.2,6.9A5.768,5.768,0,0,0,84.7,61ZM80.8,22.6C82.5,24,84.2,28,83,38.5V39c-.1.5-2.3,3.4-4.2,6-1.4,1.8-2.8,3.7-4,5.4a33.024,33.024,0,0,0-2.3,4.1,60.751,60.751,0,0,1-3.4-16.7c3.3-2.6,4.8-5,4.5-7-.3-1.7-1.7-3.1-4.2-3.9-1.5-1.5-2.2-2.8-2-3.9a2.827,2.827,0,0,1,1.4-1.8,6.4,6.4,0,0,1,2.6,1,26.937,26.937,0,0,0,2.9,1.6,5.582,5.582,0,0,1,.8.5c2.5,1.4,2.7,1.6,3,1.2a.483.483,0,0,0,0-.7,6.538,6.538,0,0,0-2.3-1.3c-.4-.2-.7-.3-1.1-.5-1.1-.6-2-1.2-2.9-1.6-1.4-1-2.4-2.1-2-3.5a1.573,1.573,0,0,1,1-1.1C73.2,15.9,78.5,20.6,80.8,22.6ZM72,9.6c0,.1-.1.1-.1.2l-6.8,8.4c.4-3.4,1.3-9.1,2.4-10.7,2.2-.1,4.3-.3,6.4-.6A10.86,10.86,0,0,0,72,9.6ZM52.8,4.3a.755.755,0,0,1-.1-.8c.4-1,2.3-1.9,3.6-2.3,5.4,0,15.6-.1,16.7,0,.9.1,3,1,3.4,2.2a1.625,1.625,0,0,1-.5,1.7,1.381,1.381,0,0,0-.3.4h0a45.3,45.3,0,0,1-10.4,1,101.358,101.358,0,0,1-11-.6C53.7,5.3,53.2,4.8,52.8,4.3Zm2,16.7c-.7,0-1.3-.1-1.1-1,.1-.8.9-1.2,1.5-1.5,1-.5,2-.9,3-1.4a10.93,10.93,0,0,0,1.5-.8,9.6,9.6,0,0,1,.6,3.3c-.4-.2-.9-.2-1.6.4h-.1a8.744,8.744,0,0,0-.8,1C57.1,21.4,55.6,21,54.8,21Zm2.9,1.7c.7-.8,1.2-1.6,1.9-2.4h.1c1-.9,1.2,1.3,1.3,1.6a25.909,25.909,0,0,0,1.4,2.9c1.1,2.2.6,5.4-.1,7.6-.4,1.3-1.2.7-1.8-.1a7.1,7.1,0,0,0-1-1.4A11.31,11.31,0,0,1,57.8,27C57,25.3,56.5,24.2,57.7,22.7ZM58,38.9c-1-1.6-1.4-3.6-2.3-5.3h0c-.4-.9.9-4,2.5-2.8l.3.3c.3.4.7.9,1.1,1.4l.1.1a3.956,3.956,0,0,0,1,1.5c1.2,1.3,1,2.5.9,4a6.428,6.428,0,0,1-.7,3.1c-.4.8-1.2.1-1.8-.8l-.3-.6a5.5,5.5,0,0,0-.7-.9C58,39,58,38.9,58,38.9ZM55.6,48a3.6,3.6,0,0,1-.2-1.1c-.1-.8-.3-1.7-.4-2.5-.1-.7.2-1.3.1-2a8.523,8.523,0,0,1,.3-3.2h0c.6-.9,1.2-.6,1.7,0,.3.5.7,1,1,1.5a5.112,5.112,0,0,1,.4,2.7,23.355,23.355,0,0,1-.4,2.6,5.853,5.853,0,0,0-.2,1.3c-.1.3-.1.5-.2.8C57.5,48.9,56.8,48.9,55.6,48Zm3.6-.5a5.9,5.9,0,0,0,.2-1.4c.2-1.3.4-2.5.6-3.8,2.2.2,2.4-3,2.5-4.7A4.482,4.482,0,0,0,61.4,34c.4.2.7.2.9-.2,2.2-3.3,1.6-7.8-.3-11-.3-.5-.5-1.5-.9-2.2l.1-.9c.1-4.9-3.8-10.2-5.9-12.6a80.421,80.421,0,0,0,9.8.5h1.3c-1.5,3.2-2.4,11.3-2.5,12.3l-.2,1.7L70.6,13c-.4,1.1-.6,2.2-.9,3.3h0a2.223,2.223,0,0,0-.8,1.3,2.834,2.834,0,0,0,.2,2.2h0l-.1.5h-.5a3.881,3.881,0,0,0-2,2.5c-.2,1.2.3,2.6,1.7,4.1v.3A62.567,62.567,0,0,0,68,37.8c.9,14.7,6.4,23.7,6.5,23.8s.2.3.4.5c.3.4.8,1,1.2,1.6a5.559,5.559,0,0,1,.9,1.7v.2A11.511,11.511,0,0,1,75.3,67c-.5-.7-1-1.4-1.4-2a17.393,17.393,0,0,1-1.1-1.8c-6.1-10.4-6.2-21.7-6.1-24.9v-.4h0v-.5H65.6v.5h0v.3h0c-.7,11.1-.3,19.6,1.1,25.4a18.031,18.031,0,0,0,.5,1.9A11.164,11.164,0,0,0,68.9,69c-5.9.7-12.6-.6-14.6-1.5-.9-.4-1.9-1.1-1.7-2.1,0-.2.1-.3.1-.5a10.628,10.628,0,0,0,.9-1.1C55.9,60.4,57.8,55,59.2,47.5ZM33.7,62.6l-.3.1a23.2,23.2,0,0,1-3.8.5h-.3a1.612,1.612,0,0,1-.4-.7c-.3-.5-.6-1.1-1.1-1.2a8.488,8.488,0,0,1-2.2-.9,7.93,7.93,0,0,0,.4-.9c.7-1.6,1.2-2.6.7-3.3a2.767,2.767,0,0,1-.4-2.9,7.483,7.483,0,0,1,3.4-2c.4,0,2.6-.1,3.2,0a15.52,15.52,0,0,0,2.3.1h.9a3.531,3.531,0,0,1,1.4,1.3s.4,1,.9,2h0a14.509,14.509,0,0,0,1.2,2.2,15.014,15.014,0,0,1,1.9,4.9c-.2.1-.3.2-.5.3-.1.1-.3.1-.3.2h-.4a40.043,40.043,0,0,1-4-3.2,32.691,32.691,0,0,0-3.5-3c-.2-.2-1,.2-.6.4h0A39.024,39.024,0,0,1,36,59.8a39.184,39.184,0,0,0,3.2,2.5A39.121,39.121,0,0,0,33.7,62.6ZM47.4,40.7a3.168,3.168,0,0,1,2.3.9c1.7,1.8,0,5-.6,6-.2.4-.3.6-.1,1a2.64,2.64,0,0,1,.7,1.9c-.1,1.1-1,2.2-2.6,3.3a18.61,18.61,0,0,0-4,4.8c.2-1.6.4-3.3.7-4.9.3-2,1.2-4.2.9-6.1,0-.3-.9-.1-.8.2.3,1.9-.7,4.6-1,6.6l-.6,4.2a7.326,7.326,0,0,0-1.6-2.3,9.993,9.993,0,0,0-.8-1.4c-.2-.4-.4-.7-.5-.9h0a9.455,9.455,0,0,1-.9-4.1,1.135,1.135,0,0,0,.3-.8,1.9,1.9,0,0,0,.1-1.3c-.1-.8-.3-2.4.1-2.8.1-.1.2-.1.4-.2.1,0,.1-.1.2-.1a2.2,2.2,0,0,0,.8.1h.3a2.527,2.527,0,0,0,2.2-1.6c.5-.6.9-1.1,1.4-1.6A9.108,9.108,0,0,1,47.4,40.7ZM41.5,29.1a4.013,4.013,0,0,1,1.5-.3,2.087,2.087,0,0,1,2.2,1.4,1.973,1.973,0,0,1-.4,2.3,1.418,1.418,0,0,0-.1,2,2.178,2.178,0,0,0,.9.7c.6.4,1.1.7.1,3.6l-2,2c-.2.2-.5.3-.7.5a5.187,5.187,0,0,0-.7-2.2c-.4-.6-1.2-.7-1.4-1.5a8.6,8.6,0,0,1-.1-1.6c0-.2-.9,0-.8.2h0c.2.9,0,1.8.7,2.5a3.022,3.022,0,0,1,1.4,1.9,10.284,10.284,0,0,1,.1,1.7c-.1.1-.1.2-.2.3-.5.7-.8,1.2-1.4,1.2-.1,0-.2-.1-.4-.1h0c0-.1-.1-.2-.1-.3h0A1.9,1.9,0,0,0,38,41.8h0c-1.2-.4-2.1-2-2.6-3l-.3-.6a6.417,6.417,0,0,0-1.2-1.3,24.947,24.947,0,0,0,2.5-3.5c.2-.2.5-.4.7-.6A26.143,26.143,0,0,0,41.5,29.1ZM27,32.2h-.5c-.5,0-1,0-1-1.3,0-1.7-.1-2.2-.9-2.5a1,1,0,0,1-.5-.4c-1.1-1-1.7-1.7-.5-3.2a3.088,3.088,0,0,1,1.6-1.1c1-.4,2.1-.9,3.4-3.6a9.955,9.955,0,0,1,5.9-4.9h.8c1.7,0,2.8.4,3.1,1a2.917,2.917,0,0,1,.1,1.6,3.323,3.323,0,0,0,.9,2.9c1.2,1.2-.3,4.8-1.1,5.6l-.4.4c-1.1,1-2.9,2.6-2.1,4.7a3.076,3.076,0,0,1-.4.9,12.311,12.311,0,0,0-2.8,3.3l-1.5-.5c.6-2.1.1-4.6,1-6.7h0a6.428,6.428,0,0,0,.7-3.1c0-.4-.9-.2-.8.2h0a5.753,5.753,0,0,1-.5,2.6.1.1,0,0,0-.1.1c-.1.3-.2.6-.3,1a7.838,7.838,0,0,0-.5,1.4,11.278,11.278,0,0,0-.5,4l-1-.3c-.1-.9-.4-2.3-1.5-2.4C27.5,32.2,27.3,32.2,27,32.2ZM20.6,42.3a3.63,3.63,0,0,1,1.7-.7c1-.3,1.9-.6,2.2-1.2a1.7,1.7,0,0,0,0-1,3.805,3.805,0,0,0-.9-1.3c-.4-.5-.4-.6-.3-.9a1.69,1.69,0,0,0,.2-.5c.2-.6.3-.8,1.7-.8h.2a23.481,23.481,0,0,1,3.7.5c.7.1,1.3.2,2,.3h.3l.2.1a4.888,4.888,0,0,1,1.1.7l.2.2c.1.1.2.1.2.2a6.57,6.57,0,0,1,1.2,1.7c1,1.6,2.1,3.4,3.5,3.5.1,0,.1.1.2.1.5.1.9.3.9.5a1.234,1.234,0,0,1-.4.8,2.079,2.079,0,0,0-1.1,2.1c.1.3.1.6.2.9a9.971,9.971,0,0,1,.2,1.6c0,.1,0,.1-.1.2a2.875,2.875,0,0,1-1.8.7,9.889,9.889,0,0,1-1.5.1,7.231,7.231,0,0,0-1.7-2.2,22.031,22.031,0,0,1-2.1-3.2c-.1-.3-.9,0-.8.3h0a17.482,17.482,0,0,0,1.8,2.9,8.68,8.68,0,0,1,1.7,2.2H30.7a9.151,9.151,0,0,0-1.6.1,5.911,5.911,0,0,1-4.5-.7l-.1-.5c-1.7-1.2-2.4-1.9-2-2.5.5-.8.9-1.4.7-1.9a1.272,1.272,0,0,0-.9-.7c-.5-.1-1.7-.9-1.8-1.4C20.5,42.4,20.5,42.4,20.6,42.3Z" fill="#76c488"/>
    <path id="Контур_14068" data-name="Контур 14068" d="M66.4,5.7h1.2c1.4-.1,2.3-.4,2.6-.9a.972.972,0,0,0,.1-.9,3.4,3.4,0,0,0-2.7-2.2h-.1c-1.8,0-6.3,2.9-6.5,3l-.4.3h.5A30.737,30.737,0,0,0,66.4,5.7ZM67.6,2a2.838,2.838,0,0,1,2.3,1.8v.1a.661.661,0,0,1-.1.6c-.2.3-.8.6-2.3.8H66.4a18.353,18.353,0,0,1-4.7-.6h0C62.8,4,66.2,2,67.6,2Z" fill="#76c488"/>
  </g>
</svg>
