<svg xmlns="http://www.w3.org/2000/svg" width="30" height="12.528" viewBox="0 0 30 12.528">
  <g id="text_size" data-name="text size" transform="translate(-657.81 -375.226)">
    <path id="Контур_346" data-name="Контур 346" d="M659.862,382.186l-2.052,5.568h.7l.516-1.432H661.4l.509,1.432h.708l-2.044-5.568Zm-.637,3.6.987-2.752.986,2.752Z" fill="#474747"/>
    <path id="Контур_347" data-name="Контур 347" d="M669.248,378.706l-3.334,9.048h1.137l.839-2.326h3.852l.828,2.326h1.15l-3.321-9.048Zm-1.034,5.843,1.6-4.473,1.6,4.473Z" fill="#474747"/>
    <path id="Контур_348" data-name="Контур 348" d="M683.21,375.226h-1.592L677,387.754h1.575l1.164-3.222h5.333l1.146,3.222h1.593Zm-3.025,8.09,2.22-6.193,2.219,6.193Z" fill="#474747"/>
  </g>
</svg>
