<svg xmlns="http://www.w3.org/2000/svg" width="23.315" height="14.86" viewBox="0 0 23.315 14.86">
  <g id="view" transform="translate(0 -92.835)">
    <g id="Сгруппировать_652" data-name="Сгруппировать 652" transform="translate(0 92.835)">
      <g id="Сгруппировать_651" data-name="Сгруппировать 651" transform="translate(0 0)">
        <path id="Контур_247" data-name="Контур 247" d="M23.166,99.811c-.208-.285-5.171-6.976-11.509-6.976S.356,99.527.148,99.811a.769.769,0,0,0,0,.907c.208.285,5.171,6.976,11.509,6.976s11.3-6.692,11.509-6.976A.768.768,0,0,0,23.166,99.811Zm-11.509,6.346c-4.669,0-8.712-4.441-9.909-5.893,1.2-1.453,5.231-5.892,9.909-5.892s8.712,4.441,9.909,5.893C20.371,101.719,16.336,106.158,11.657,106.158Z" transform="translate(0 -92.835)" fill="#474747"/>
      </g>
    </g>
    <g id="Сгруппировать_654" data-name="Сгруппировать 654" transform="translate(7.045 95.653)">
      <g id="Сгруппировать_653" data-name="Сгруппировать 653" transform="translate(0 0)">
        <path id="Контур_248" data-name="Контур 248" d="M159.334,154.725a4.612,4.612,0,1,0,4.612,4.612A4.617,4.617,0,0,0,159.334,154.725Zm0,7.686a3.074,3.074,0,1,1,3.074-3.074A3.078,3.078,0,0,1,159.334,162.411Z" transform="translate(-154.722 -154.725)" fill="#474747"/>
      </g>
    </g>
  </g>
</svg>
